{
.appVersion = "3231";
.formatVersion = 3;
DisplayStrings = (
"||A||
||B||
||C||
||D||
||E||
||E||
||F||
||G||
||H||
||I||
||J||
||K||
||L||
||M||
||N||
||O||
||P||
||Q||
||R||
||S||
||T||
||U||
||V||
||W||
||X||
||Y||
||Z||",
"ahora si",
V,
"ABCDEFGHtIJKLMNOPQRSTUVWXYZ0123456789//⁄"
);
date = "2023-08-21 21:53:45 +0000";
familyName = "CF VCFONT";
fontMaster = (
{
guides = (
{
locked = 1;
pos = (0,746);
}
);
id = m002;
metricValues = (
{
over = 16;
pos = 800;
},
{
over = -16;
},
{
over = -16;
pos = -200;
},
{
},
{
},
{
}
);
name = Regular;
userData = {
GSCornerRadius = 30;
GSOffsetAutoStroke = 1;
GSOffsetCapStyle = 1;
GSOffsetHorizontal = 40;
GSOffsetKeepCompatible = 1;
GSOffsetVertical = 32;
};
},
{
guides = (
{
locked = 1;
pos = (0,746);
}
);
id = m003;
metricValues = (
{
over = 16;
pos = 800;
},
{
over = -16;
},
{
over = -16;
pos = -200;
},
{
},
{
},
{
}
);
name = black;
userData = {
GSCornerRadius = 50;
GSOffsetAutoStroke = 1;
GSOffsetCapStyle = 2;
GSOffsetHorizontal = 10;
GSOffsetVertical = 10;
};
}
);
glyphs = (
{
glyphname = A;
lastChange = "2023-12-29 15:21:15 +0000";
layers = (
{
anchors = (
{
name = bottom;
pos = (333,48);
},
{
name = ogonek;
pos = (541,57);
},
{
name = top;
pos = (333,744);
}
);
layerId = m002;
shapes = (
{
closed = 1;
nodes = (
(149,-14,o),
(181,7,o),
(192,37,cs),
(319,402,ls),
(328,429,o),
(348,429,o),
(358,403,cs),
(508,35,o),
(513,28,o),
(518,21,cs),
(526,9,o),
(550,-11,o),
(580,-11,cs),
(633,-11,o),
(673,36,o),
(652,84,cs),
(396,712,ls),
(374,770,o),
(280,769,o),
(260,706,cs),
(46,76,ls),
(30,27,o),
(69,-14,o),
(118,-14,cs)
);
}
);
width = 700;
},
{
anchors = (
{
name = bottom;
pos = (330,0);
},
{
name = ogonek;
pos = (570,10);
},
{
name = top;
pos = (330,800);
}
);
layerId = m003;
shapes = (
{
closed = 1;
nodes = (
(102,-35,o),
(118,-22,o),
(123,-4,c),
(313,543,ls),
(322,569,o),
(342,569,o),
(352,544,cs),
(573,3,o),
(577,-4,o),
(581,-11,cs),
(588,-21,o),
(602,-31,o),
(615,-31,cs),
(648,-31,o),
(665,3,o),
(655,27,cs),
(360,749,ls),
(346,785,o),
(303,784,o),
(290,745,cs),
(44,20,ls),
(35,-7,o),
(55,-35,o),
(83,-35,cs)
);
}
);
width = 700;
}
);
unicode = (65,97);
},
{
glyphname = B;
lastChange = "2023-12-29 15:23:52 +0000";
layers = (
{
layerId = m002;
shapes = (
{
closed = 1;
nodes = (
(588,151,ls),
(656,183,o),
(654,269,o),
(587,297,cs),
(413,372,ls),
(389,383,o),
(389,402,o),
(412,413,cs),
(557,481,ls),
(629,515,o),
(624,589,o),
(552,621,cs),
(235,761,ls),
(191,780,o),
(130,754,o),
(130,700,cs),
(136,53,ls),
(136,-2,o),
(198,-27,o),
(241,-8,cs)
);
},
{
closed = 1;
nodes = (
(291,157,o),
(277,167,o),
(277,189,cs),
(276,252,ls),
(276,275,o),
(290,285,o),
(311,275,cs),
(387,241,ls),
(411,230,o),
(411,212,o),
(387,201,cs),
(312,167,ls)
);
},
{
closed = 1;
nodes = (
(289,495,o),
(274,503,o),
(274,527,cs),
(274,550,ls),
(274,573,o),
(287,583,o),
(308,574,cs),
(338,561,ls),
(362,551,o),
(363,533,o),
(339,521,cs),
(310,506,ls)
);
},
{
closed = 1;
nodes = (
);
},
{
closed = 1;
nodes = (
);
},
{
closed = 1;
nodes = (
);
},
{
closed = 1;
nodes = (
);
},
{
closed = 1;
nodes = (
);
},
{
closed = 1;
nodes = (
);
}
);
width = 700;
},
{
layerId = m003;
shapes = (
{
closed = 1;
nodes = (
(599,151,ls),
(640,170,o),
(639,234,o),
(599,252,cs),
(319,374,ls),
(297,384,o),
(296,405,o),
(318,415,cs),
(564,530,ls),
(611,552,o),
(605,604,o),
(559,624,cs),
(194,785,ls),
(167,797,o),
(138,780,o),
(138,749,cs),
(145,4,ls),
(145,-28,o),
(175,-44,o),
(201,-32,cs)
);
},
{
closed = 1;
nodes = (
(244,80,o),
(228,89,o),
(228,111,cs),
(226,296,ls),
(226,320,o),
(241,328,o),
(262,318,cs),
(475,222,ls),
(498,212,o),
(498,192,o),
(475,182,cs),
(264,89,ls)
);
},
{
closed = 1;
nodes = (
(240,458,o),
(225,466,o),
(225,490,cs),
(223,641,ls),
(223,665,o),
(237,673,o),
(258,664,cs),
(426,590,ls),
(449,580,o),
(449,561,o),
(427,550,cs),
(260,468,ls)
);
}
);
width = 700;
}
);
unicode = (66,98);
},
{
glyphname = C;
lastChange = "2023-12-29 15:23:43 +0000";
layers = (
{
layerId = m002;
shapes = (
{
closed = 1;
nodes = (
(602,180,ls),
(613,191,o),
(619,206,o),
(619,223,cs),
(619,263,o),
(583,296,o),
(543,296,cs),
(509,296,o),
(498,280,o),
(473,255,cs),
(403,185,ls),
(389,170,o),
(374,171,o),
(361,187,cs),
(236,342,ls),
(229,350,o),
(227,356,o),
(234,367,cs),
(350,552,ls),
(361,570,o),
(377,572,o),
(392,557,cs),
(485,465,ls),
(501,450,o),
(513,445,o),
(535,445,cs),
(576,445,o),
(616,472,o),
(616,513,cs),
(616,537,o),
(602,555,o),
(584,573,cs),
(408,746,ls),
(374,779,o),
(312,773,o),
(287,733,cs),
(74,391,ls),
(56,362,o),
(57,338,o),
(79,310,cs),
(315,9,ls),
(341,-24,o),
(399,-27,o),
(429,3,cs)
);
}
);
width = 700;
},
{
layerId = m003;
shapes = (
{
closed = 1;
nodes = (
(604,188,ls),
(609,194,o),
(615,206,o),
(615,216,cs),
(615,239,o),
(596,257,o),
(573,257,cs),
(562,257,o),
(549,252,o),
(543,245,cs),
(405,109,ls),
(391,95,o),
(375,96,o),
(363,111,cs),
(174,344,ls),
(163,356,o),
(163,371,o),
(172,385,cs),
(345,654,ls),
(356,672,o),
(372,674,o),
(387,659,cs),
(540,511,ls),
(550,502,o),
(561,500,o),
(567,500,cs),
(591,499,o),
(611,518,o),
(611,541,cs),
(611,557,o),
(601,569,o),
(588,582,cs),
(383,780,ls),
(363,799,o),
(334,795,o),
(320,772,cs),
(73,386,ls),
(63,370,o),
(63,352,o),
(75,336,cs),
(347,-1,ls),
(364,-22,o),
(391,-23,o),
(410,-4,cs)
);
}
);
width = 700;
}
);
unicode = (67,99);
},
{
glyphname = D;
lastChange = "2023-12-29 15:24:15 +0000";
layers = (
{
layerId = m002;
shapes = (
{
closed = 1;
nodes = (
(618,325,ls),
(653,356,o),
(656,395,o),
(620,427,cs),
(262,752,ls),
(220,788,o),
(131,768,o),
(131,700,cs),
(131,49,ls),
(131,-15,o),
(213,-35,o),
(253,1,cs)
);
},
{
closed = 1;
nodes = (
(293,237,o),
(275,245,o),
(275,271,cs),
(275,486,ls),
(275,512,o),
(293,520,o),
(312,502,cs),
(425,398,ls),
(440,385,o),
(440,369,o),
(425,356,cs),
(312,254,ls)
);
}
);
width = 700;
},
{
layerId = m003;
shapes = (
{
closed = 1;
nodes = (
(622,345,ls),
(641,362,o),
(644,388,o),
(624,407,cs),
(212,781,ls),
(185,805,o),
(138,790,o),
(138,749,cs),
(138,0,ls),
(138,-36,o),
(175,-52,o),
(202,-28,cs)
);
},
{
closed = 1;
nodes = (
(241,115,o),
(224,124,o),
(224,150,cs),
(224,601,ls),
(224,628,o),
(249,635,o),
(268,617,cs),
(506,398,ls),
(521,385,o),
(521,369,o),
(506,356,cs),
(260,133,ls)
);
}
);
width = 700;
}
);
unicode = (68,100);
},
{
glyphname = E;
lastChange = "2024-01-03 15:36:11 +0000";
layers = (
{
anchors = (
{
name = bottom;
pos = (351,47);
},
{
name = ogonek;
pos = (595,55);
},
{
name = top;
pos = (386,812);
},
{
name = topleft;
pos = (64,742);
}
);
layerId = m002;
shapes = (
{
closed = 1;
nodes = (
(538,-43,o),
(575,-14,o),
(575,26,cs),
(575,43,o),
(567,58,o),
(554,73,c),
(322,305,ls),
(334,293,o),
(304,282,o),
(305,282,cs),
(552,282,ls),
(590,282,o),
(625,311,o),
(625,350,cs),
(625,393,o),
(583,419,o),
(545,419,cs),
(307,419,l),
(307,419,o),
(322,398,o),
(320,396,cs),
(554,647,ls),
(565,658,o),
(570,670,o),
(570,689,cs),
(570,729,o),
(534,758,o),
(494,758,cs),
(477,758,o),
(454,752,o),
(435,733,cs),
(116,387,ls),
(100,369,o),
(94,354,o),
(94,335,cs),
(94,316,o),
(104,300,o),
(118,288,cs),
(447,-25,ls),
(456,-34,o),
(478,-43,o),
(498,-43,cs)
);
}
);
width = 700;
},
{
anchors = (
{
name = bottom;
pos = (350,0);
},
{
name = ogonek;
pos = (630,10);
},
{
name = top;
pos = (390,880);
},
{
name = topleft;
pos = (20,800);
}
);
layerId = m003;
shapes = (
{
closed = 1;
nodes = (
(542,-66,o),
(561,-47,o),
(561,-24,cs),
(561,-13,o),
(555,-2,o),
(546,8,cs),
(284,271,ls),
(266,289,o),
(272,309,o),
(297,309,cs),
(581,307,ls),
(602,307,o),
(619,327,o),
(619,349,cs),
(619,376,o),
(595,391,o),
(573,391,cs),
(299,389,ls),
(273,389,o),
(262,406,o),
(280,426,cs),
(546,712,ls),
(554,720,o),
(556,729,o),
(556,739,cs),
(556,762,o),
(537,781,o),
(514,781,cs),
(503,781,o),
(492,777,o),
(483,767,cs),
(119,366,ls),
(107,353,o),
(105,342,o),
(105,332,cs),
(105,322,o),
(111,311,o),
(121,302,cs),
(492,-56,ls),
(497,-61,o),
(507,-66,o),
(519,-66,cs)
);
}
);
width = 700;
}
);
unicode = (69,101);
},
{
glyphname = F;
lastChange = "2024-01-03 15:36:07 +0000";
layers = (
{
layerId = m002;
shapes = (
{
closed = 1;
nodes = (
(287,341,l),
(287,340,o),
(285,336,o),
(281,327,c),
(524,334,ls),
(563,336,o),
(598,364,o),
(598,403,cs),
(598,443,o),
(561,473,o),
(520,471,cs),
(309,466,ls),
(313,466,o),
(323,447,o),
(322,444,c),
(549,655,ls),
(562,666,o),
(567,680,o),
(567,699,cs),
(567,739,o),
(531,768,o),
(491,768,cs),
(469,768,o),
(450,758,o),
(435,745,cs),
(119,453,l),
(97,430,o),
(95,408,o),
(104,383,cs),
(235,43,ls),
(236,41,o),
(264,4,o),
(280,-9,c),
(272,-8,o),
(293,-17,o),
(311,-17,cs),
(361,-17,o),
(400,24,o),
(383,72,cs)
);
}
);
width = 700;
},
{
layerId = m003;
shapes = (
{
closed = 1;
nodes = (
(234,323,ls),
(227,343,o),
(239,357,o),
(260,358,cs),
(548,365,ls),
(571,366,o),
(590,384,o),
(590,407,cs),
(590,430,o),
(571,450,o),
(548,449,cs),
(304,441,ls),
(278,440,o),
(267,461,o),
(286,479,cs),
(545,721,ls),
(553,728,o),
(554,739,o),
(554,748,cs),
(554,771,o),
(535,790,o),
(512,790,cs),
(500,790,o),
(489,782,o),
(479,773,cs),
(127,436,ls),
(113,423,o),
(113,405,o),
(118,393,cs),
(261,7,ls),
(263,3,o),
(274,-31,o),
(290,-36,cs),
(293,-37,o),
(299,-39,o),
(305,-39,cs),
(334,-39,o),
(354,-11,o),
(345,14,cs)
);
}
);
width = 700;
}
);
unicode = (70,102);
},
{
glyphname = G;
lastChange = "2023-12-29 15:13:58 +0000";
layers = (
{
layerId = m002;
shapes = (
{
closed = 1;
nodes = (
(489,-71,o),
(568,-50,o),
(568,14,cs),
(570,374,ls),
(570,414,o),
(533,442,o),
(493,442,cs),
(453,442,o),
(417,414,o),
(417,374,cs),
(415,144,ls),
(415,141,o),
(449,154,o),
(450,153,cs),
(241,347,l),
(241,347,o),
(241,337,o),
(241,337,c),
(531,627,ls),
(547,643,o),
(556,659,o),
(556,678,cs),
(556,718,o),
(519,747,o),
(479,747,cs),
(460,747,o),
(437,738,o),
(428,729,cs),
(84,390,ls),
(50,358,o),
(52,319,o),
(86,290,cs),
(446,-34,ls)
);
}
);
width = 700;
},
{
layerId = m003;
shapes = (
{
closed = 1;
nodes = (
(525,-89,o),
(560,-72,o),
(560,-36,cs),
(562,378,ls),
(562,401,o),
(543,420,o),
(520,420,cs),
(497,420,o),
(478,401,o),
(478,378,cs),
(476,114,ls),
(476,87,o),
(458,80,o),
(439,98,cs),
(199,319,ls),
(184,333,o),
(184,348,o),
(198,362,cs),
(531,696,ls),
(540,705,o),
(546,716,o),
(546,728,cs),
(546,751,o),
(527,770,o),
(504,770,cs),
(493,770,o),
(483,766,o),
(477,760,cs),
(82,370,ls),
(62,352,o),
(64,324,o),
(82,309,cs),
(497,-64,ls)
);
}
);
width = 700;
}
);
unicode = (71,103);
},
{
glyphname = H;
lastChange = "2023-12-29 15:13:58 +0000";
layers = (
{
layerId = m002;
shapes = (
{
closed = 1;
nodes = (
(220,-4,o),
(256,25,o),
(256,65,cs),
(256,318,ls),
(256,323,o),
(245,312,o),
(242,312,cs),
(458,312,ls),
(455,312,o),
(444,323,o),
(444,318,cs),
(444,65,ls),
(444,25,o),
(480,-4,o),
(520,-4,cs),
(560,-4,o),
(597,25,o),
(597,65,cs),
(597,677,ls),
(597,717,o),
(560,746,o),
(520,746,cs),
(480,746,o),
(444,717,o),
(444,677,cs),
(444,443,ls),
(444,438,o),
(455,449,o),
(458,449,cs),
(242,449,ls),
(245,449,o),
(256,438,o),
(256,443,cs),
(256,677,ls),
(256,717,o),
(220,746,o),
(180,746,cs),
(140,746,o),
(103,717,o),
(103,677,cs),
(103,65,ls),
(103,25,o),
(140,-4,o),
(180,-4,cs)
);
}
);
width = 700;
},
{
layerId = m003;
shapes = (
{
closed = 1;
nodes = (
(177,-23,o),
(196,-4,o),
(196,19,cs),
(196,310,ls),
(196,329,o),
(207,340,o),
(226,340,cs),
(474,340,ls),
(493,340,o),
(504,329,o),
(504,310,cs),
(504,19,ls),
(504,-4,o),
(523,-23,o),
(546,-23,cs),
(569,-23,o),
(588,-4,o),
(588,19,cs),
(588,723,ls),
(588,746,o),
(569,765,o),
(546,765,cs),
(523,765,o),
(504,746,o),
(504,723,cs),
(504,454,ls),
(504,435,o),
(493,424,o),
(474,424,cs),
(226,424,ls),
(207,424,o),
(196,435,o),
(196,454,cs),
(196,723,ls),
(196,746,o),
(177,765,o),
(154,765,cs),
(131,765,o),
(112,746,o),
(112,723,cs),
(112,19,ls),
(112,-4,o),
(131,-23,o),
(154,-23,cs)
);
}
);
width = 700;
}
);
unicode = (72,104);
},
{
glyphname = I;
lastChange = "2023-12-29 15:13:58 +0000";
layers = (
{
anchors = (
{
name = bottom;
pos = (350,49);
},
{
name = ogonek;
pos = (593,57);
},
{
name = top;
pos = (350,771);
},
{
name = topleft;
pos = (63,744);
}
);
layerId = m002;
shapes = (
{
closed = 1;
nodes = (
(501,8,ls),
(541,8,o),
(578,37,o),
(578,77,cs),
(578,117,o),
(541,145,o),
(501,145,cs),
(420,145,ls),
(423,145,o),
(434,134,o),
(434,139,cs),
(434,609,ls),
(434,614,o),
(423,603,o),
(420,603,cs),
(501,603,ls),
(541,603,o),
(578,631,o),
(578,671,cs),
(578,711,o),
(541,740,o),
(501,740,cs),
(199,740,ls),
(159,740,o),
(122,711,o),
(122,671,cs),
(122,631,o),
(159,603,o),
(199,603,cs),
(295,603,ls),
(296,603,o),
(281,611,o),
(281,609,cs),
(281,139,ls),
(281,137,o),
(296,145,o),
(295,145,cs),
(199,145,ls),
(159,145,o),
(122,117,o),
(122,77,cs),
(122,37,o),
(159,8,o),
(199,8,cs)
);
}
);
width = 700;
},
{
anchors = (
{
name = bottom;
pos = (350,0);
},
{
name = ogonek;
pos = (630,10);
},
{
name = top;
pos = (350,830);
},
{
name = topleft;
pos = (20,800);
}
);
layerId = m003;
shapes = (
{
closed = 1;
nodes = (
(524,-10,ls),
(547,-10,o),
(566,9,o),
(566,32,cs),
(566,55,o),
(547,74,o),
(524,74,cs),
(431,74,ls),
(412,74,o),
(401,85,o),
(401,104,cs),
(401,644,ls),
(401,663,o),
(412,674,o),
(431,674,cs),
(524,674,ls),
(547,674,o),
(566,693,o),
(566,716,cs),
(566,739,o),
(547,758,o),
(524,758,cs),
(176,758,ls),
(153,758,o),
(134,739,o),
(134,716,cs),
(134,693,o),
(153,674,o),
(176,674,cs),
(287,674,ls),
(306,674,o),
(317,663,o),
(317,644,cs),
(317,104,ls),
(317,85,o),
(306,74,o),
(287,74,cs),
(176,74,ls),
(153,74,o),
(134,55,o),
(134,32,cs),
(134,9,o),
(153,-10,o),
(176,-10,cs)
);
}
);
width = 700;
}
);
unicode = (73,105);
},
{
glyphname = J;
lastChange = "2023-12-29 15:13:58 +0000";
layers = (
{
layerId = m002;
shapes = (
{
closed = 1;
nodes = (
(461,-10,o),
(533,12,o),
(533,73,cs),
(535,696,ls),
(535,736,o),
(498,765,o),
(458,765,cs),
(418,765,o),
(382,736,o),
(382,696,cs),
(382,188,ls),
(382,184,o),
(413,199,o),
(414,198,cs),
(216,342,ls),
(207,348,o),
(185,354,o),
(171,354,cs),
(131,354,o),
(94,326,o),
(94,286,cs),
(94,266,o),
(104,248,o),
(122,233,c),
(414,22,ls)
);
}
);
width = 700;
},
{
layerId = m003;
shapes = (
{
closed = 1;
nodes = (
(487,-25,o),
(520,-8,o),
(520,26,cs),
(522,743,ls),
(522,766,o),
(503,785,o),
(480,785,cs),
(457,785,o),
(438,766,o),
(438,743,cs),
(438,158,ls),
(438,133,o),
(421,125,o),
(401,140,cs),
(174,305,ls),
(169,309,o),
(158,313,o),
(149,313,cs),
(126,313,o),
(107,294,o),
(107,271,cs),
(107,259,o),
(113,246,o),
(124,237,cs),
(459,-5,ls)
);
}
);
width = 700;
}
);
unicode = (74,106);
},
{
glyphname = K;
lastChange = "2023-12-29 15:13:58 +0000";
layers = (
{
layerId = m002;
shapes = (
{
closed = 1;
nodes = (
(237,-25,o),
(273,4,o),
(273,44,cs),
(277,238,ls),
(277,241,o),
(243,228,o),
(243,229,c),
(505,1,ls),
(520,-11,o),
(541,-16,o),
(556,-16,cs),
(596,-16,o),
(633,12,o),
(633,52,cs),
(633,73,o),
(623,89,o),
(607,104,c),
(310,352,ls),
(308,354,o),
(308,342,o),
(308,343,c),
(593,609,ls),
(606,620,o),
(615,636,o),
(615,657,cs),
(615,697,o),
(579,726,o),
(539,726,cs),
(520,726,o),
(497,719,o),
(486,708,cs),
(244,470,l),
(242,472,o),
(281,459,o),
(281,461,cs),
(287,690,ls),
(287,730,o),
(250,759,o),
(210,759,cs),
(170,759,o),
(133,730,o),
(133,690,cs),
(120,44,ls),
(120,4,o),
(157,-25,o),
(197,-25,cs)
);
}
);
width = 700;
},
{
layerId = m003;
shapes = (
{
closed = 1;
nodes = (
(193,-47,o),
(212,-28,o),
(212,-5,cs),
(216,219,ls),
(216,245,o),
(234,252,o),
(253,236,cs),
(558,-29,ls),
(563,-33,o),
(573,-37,o),
(583,-37,cs),
(606,-37,o),
(625,-18,o),
(625,5,cs),
(625,17,o),
(619,30,o),
(608,39,cs),
(268,324,ls),
(252,337,o),
(252,352,o),
(267,366,cs),
(591,669,ls),
(600,677,o),
(605,689,o),
(605,701,cs),
(605,724,o),
(586,743,o),
(563,743,cs),
(552,743,o),
(542,740,o),
(535,733,cs),
(258,460,ls),
(240,442,o),
(220,449,o),
(221,476,cs),
(227,739,ls),
(228,762,o),
(208,781,o),
(185,781,cs),
(162,781,o),
(143,762,o),
(143,739,cs),
(128,-5,ls),
(128,-28,o),
(147,-47,o),
(170,-47,cs)
);
}
);
width = 700;
}
);
unicode = (75,107);
},
{
glyphname = L;
lastChange = "2023-12-29 15:13:58 +0000";
layers = (
{
layerId = m002;
shapes = (
{
closed = 1;
nodes = (
(444,142,ls),
(447,148,o),
(463,154,o),
(466,154,cs),
(272,153,l),
(272,153,o),
(286,144,o),
(286,146,cs),
(305,685,ls),
(307,726,o),
(269,755,o),
(229,755,cs),
(190,755,o),
(154,727,o),
(152,689,cs),
(130,86,ls),
(128,44,o),
(165,16,o),
(206,16,cs),
(489,17,ls),
(519,17,o),
(549,33,o),
(559,53,c),
(618,151,ls),
(625,164,o),
(630,176,o),
(630,188,cs),
(630,228,o),
(594,256,o),
(554,256,cs),
(529,256,o),
(498,245,o),
(487,222,cs)
);
}
);
width = 700;
},
{
layerId = m003;
shapes = (
{
closed = 1;
nodes = (
(495,91,ls),
(492,85,o),
(486,83,o),
(479,83,cs),
(256,81,ls),
(237,81,o),
(225,93,o),
(226,112,cs),
(248,731,ls),
(249,755,o),
(229,774,o),
(206,774,cs),
(183,774,o),
(165,755,o),
(164,733,cs),
(138,40,ls),
(137,15,o),
(156,-3,o),
(180,-3,cs),
(505,-1,ls),
(523,-1,o),
(537,7,o),
(544,19,cs),
(612,131,ls),
(618,141,o),
(622,151,o),
(622,158,cs),
(622,181,o),
(603,200,o),
(580,200,cs),
(568,200,o),
(553,196,o),
(546,183,cs)
);
}
);
width = 700;
}
);
unicode = (76,108);
},
{
glyphname = M;
lastChange = "2023-12-29 15:19:04 +0000";
layers = (
{
layerId = m002;
shapes = (
{
closed = 1;
nodes = (
(594,660,ls),
(594,729,o),
(498,752,o),
(465,702,cs),
(371,560,ls),
(359,542,o),
(342,540,o),
(329,558,cs),
(213,715,ls),
(178,762,o),
(87,740,o),
(87,671,cs),
(87,51,ls),
(87,11,o),
(123,-18,o),
(163,-18,cs),
(203,-18,o),
(240,11,o),
(240,51,cs),
(240,375,ls),
(240,403,o),
(259,410,o),
(277,388,cs),
(298,363,ls),
(325,332,o),
(385,334,o),
(412,368,cs),
(413,369,ls),
(430,391,o),
(449,387,o),
(450,358,cs),
(462,50,ls),
(464,7,o),
(499,-19,o),
(538,-19,cs),
(578,-19,o),
(614,10,o),
(614,50,cs)
);
},
{
closed = 1;
nodes = (
);
},
{
closed = 1;
nodes = (
);
}
);
width = 700;
},
{
layerId = m003;
shapes = (
{
closed = 1;
nodes = (
(585,705,ls),
(585,743,o),
(541,764,o),
(520,732,cs),
(374,509,ls),
(364,493,o),
(343,493,o),
(331,509,cs),
(156,746,ls),
(134,775,o),
(93,756,o),
(93,718,cs),
(93,4,ls),
(93,-19,o),
(112,-38,o),
(135,-38,cs),
(158,-38,o),
(177,-19,o),
(177,4,cs),
(177,504,ls),
(177,530,o),
(197,540,o),
(214,520,cs),
(325,388,ls),
(341,369,o),
(368,370,o),
(382,388,cs),
(468,504,ls),
(484,525,o),
(505,516,o),
(506,489,cs),
(525,4,ls),
(526,-22,o),
(543,-39,o),
(566,-39,cs),
(589,-39,o),
(608,-20,o),
(608,3,cs)
);
}
);
width = 700;
}
);
unicode = (77,109);
},
{
glyphname = N;
lastChange = "2024-01-03 15:36:17 +0000";
layers = (
{
anchors = (
{
name = bottom;
pos = (337,36);
},
{
name = top;
pos = (345,746);
}
);
layerId = m002;
shapes = (
{
closed = 1;
nodes = (
(234,-5,o),
(271,23,o),
(271,63,cs),
(271,273,ls),
(271,303,o),
(294,309,o),
(307,282,cs),
(429,36,ls),
(460,-26,o),
(568,-8,o),
(570,63,cs),
(588,662,ls),
(590,703,o),
(552,732,o),
(512,732,cs),
(473,732,o),
(437,704,o),
(435,666,cs),
(429,427,ls),
(428,397,o),
(406,392,o),
(393,419,cs),
(257,692,ls),
(226,753,o),
(112,737,o),
(112,662,cs),
(118,63,ls),
(118,23,o),
(154,-5,o),
(194,-5,cs)
);
},
{
closed = 1;
nodes = (
);
}
);
width = 700;
},
{
anchors = (
{
name = bottom;
pos = (309,0);
},
{
name = top;
pos = (309,800);
}
);
layerId = m003;
shapes = (
{
closed = 1;
nodes = (
(194,-24,o),
(213,-5,o),
(213,18,cs),
(213,451,ls),
(213,481,o),
(236,487,o),
(249,461,cs),
(482,3,ls),
(502,-36,o),
(556,-22,o),
(557,19,cs),
(578,708,ls),
(579,732,o),
(559,751,o),
(536,751,cs),
(513,751,o),
(495,732,o),
(494,710,cs),
(482,255,ls),
(481,226,o),
(458,220,o),
(445,246,cs),
(202,725,ls),
(182,764,o),
(122,751,o),
(122,707,cs),
(129,18,ls),
(129,-5,o),
(148,-24,o),
(171,-24,cs)
);
}
);
width = 700;
}
);
unicode = (78,110);
},
{
glyphname = O;
lastChange = "2023-12-29 15:19:58 +0000";
layers = (
{
anchors = (
{
name = bottom;
pos = (350,49);
},
{
name = center;
pos = (350,396);
},
{
name = ogonek;
pos = (594,57);
},
{
name = top;
pos = (350,744);
},
{
name = topleft;
pos = (63,744);
},
{
name = topright;
pos = (637,744);
}
);
layerId = m002;
shapes = (
{
closed = 1;
nodes = (
(311,-31,o),
(382,-28,o),
(410,14,cs),
(619,328,l),
(632,352,o),
(634,372,o),
(617,400,cs),
(409,731,ls),
(382,775,o),
(309,774,o),
(283,732,cs),
(84,401,ls),
(68,374,o),
(68,352,o),
(84,325,cs),
(283,12,ls)
);
},
{
closed = 1;
nodes = (
(356,204,o),
(340,204,o),
(328,224,cs),
(244,357,ls),
(242,361,o),
(242,366,o),
(244,369,cs),
(328,512,ls),
(340,533,o),
(357,531,o),
(369,512,cs),
(457,374,ls),
(462,366,o),
(462,360,o),
(452,345,cs),
(369,223,ls)
);
},
{
closed = 1;
nodes = (
);
}
);
width = 700;
},
{
anchors = (
{
name = bottom;
pos = (350,0);
},
{
name = center;
pos = (350,400);
},
{
name = ogonek;
pos = (630,10);
},
{
name = top;
pos = (350,800);
},
{
name = topleft;
pos = (20,800);
},
{
name = topright;
pos = (680,800);
}
);
layerId = m003;
shapes = (
{
closed = 1;
nodes = (
(329,-49,o),
(365,-45,o),
(382,-19,cs),
(618,338,ls),
(626,351,o),
(628,367,o),
(618,385,cs),
(379,765,ls),
(361,793,o),
(328,793,o),
(312,766,cs),
(83,386,ls),
(74,371,o),
(74,353,o),
(83,338,cs),
(312,-22,ls)
);
},
{
closed = 1;
nodes = (
(355,98,o),
(338,98,o),
(326,118,cs),
(187,340,ls),
(178,355,o),
(178,368,o),
(186,382,cs),
(326,620,ls),
(338,641,o),
(355,640,o),
(367,621,cs),
(519,382,ls),
(528,367,o),
(527,354,o),
(518,340,cs),
(368,117,ls)
);
}
);
width = 700;
}
);
unicode = (79,111);
},
{
glyphname = P;
kernRight = P;
lastChange = "2023-12-29 15:13:58 +0000";
layers = (
{
layerId = m002;
shapes = (
{
closed = 1;
nodes = (
(289,-25,o),
(326,3,o),
(326,43,cs),
(325,242,ls),
(325,250,o),
(322,246,o),
(321,245,c),
(616,412,ls),
(667,442,o),
(667,496,o),
(616,526,cs),
(282,716,ls),
(240,740,o),
(170,717,o),
(170,660,cs),
(173,43,ls),
(173,3,o),
(209,-25,o),
(249,-25,cs)
);
},
{
closed = 1;
nodes = (
(323,553,ls),
(323,556,o),
(296,544,o),
(296,542,c),
(457,458,ls),
(451,461,o),
(451,475,o),
(455,479,c),
(297,395,l),
(298,396,o),
(325,380,o),
(325,385,cs)
);
}
);
width = 700;
},
{
layerId = m003;
shapes = (
{
closed = 1;
nodes = (
(248,-45,o),
(267,-26,o),
(267,-3,cs),
(266,226,ls),
(266,243,o),
(273,254,o),
(286,262,cs),
(624,454,ls),
(651,470,o),
(651,504,o),
(624,520,cs),
(239,739,ls),
(212,755,o),
(180,739,o),
(180,706,cs),
(183,-3,ls),
(183,-26,o),
(202,-45,o),
(225,-45,cs)
);
},
{
closed = 1;
nodes = (
(264,583,ls),
(264,607,o),
(280,614,o),
(301,603,cs),
(484,508,ls),
(503,498,o),
(503,476,o),
(484,466,cs),
(302,370,ls),
(280,358,o),
(266,366,o),
(266,390,cs)
);
}
);
width = 700;
}
);
unicode = (80,112);
},
{
glyphname = Q;
lastChange = "2023-12-29 15:13:58 +0000";
layers = (
{
anchors = (
{
name = bottom;
pos = (342,49);
},
{
name = center;
pos = (342,370);
},
{
name = ogonek;
pos = (551,57);
},
{
name = top;
pos = (342,744);
},
{
name = topleft;
pos = (99,744);
},
{
name = topright;
pos = (586,744);
}
);
layerId = m002;
shapes = (
{
closed = 1;
nodes = (
(617,-17,o),
(653,12,o),
(653,52,cs),
(653,67,o),
(647,78,o),
(639,91,cs),
(560,210,ls),
(558,213,o),
(557,215,o),
(557,215,c),
(632,328,l),
(645,352,o),
(647,372,o),
(630,400,cs),
(422,731,ls),
(393,775,o),
(322,774,o),
(296,732,cs),
(97,401,ls),
(81,374,o),
(81,352,o),
(97,325,cs),
(296,12,ls),
(324,-30,o),
(394,-30,o),
(421,11,cs),
(485,106,l),
(483,107,o),
(454,107,o),
(453,106,c),
(512,16,ls),
(522,0,o),
(548,-17,o),
(577,-17,cs)
);
},
{
closed = 1;
nodes = (
(255,361,l),
(254,362,o),
(254,365,o),
(255,365,c),
(377,572,l),
(377,572,o),
(368,573,o),
(343,574,c),
(476,364,ls),
(475,366,o),
(476,362,o),
(476,362,c),
(453,327,ls),
(452,325,o),
(484,325,o),
(483,326,cs),
(477,335,ls),
(462,357,o),
(432,369,o),
(412,369,cs),
(372,369,o),
(335,341,o),
(335,301,cs),
(335,287,o),
(342,274,o),
(350,262,cs),
(376,222,ls),
(378,219,o),
(378,217,o),
(376,214,cs),
(344,165,l),
(345,166,o),
(377,166,o),
(376,168,cs)
);
}
);
width = 700;
},
{
anchors = (
{
name = bottom;
pos = (338,0);
},
{
name = center;
pos = (338,370);
},
{
name = ogonek;
pos = (578,10);
},
{
name = top;
pos = (338,800);
},
{
name = topleft;
pos = (58,800);
},
{
name = topright;
pos = (618,800);
}
);
layerId = m003;
shapes = (
{
closed = 1;
nodes = (
(631,-38,o),
(650,-19,o),
(650,4,cs),
(650,12,o),
(646,21,o),
(641,28,cs),
(547,170,ls),
(538,184,o),
(538,198,o),
(547,212,cs),
(630,338,ls),
(638,351,o),
(640,367,o),
(630,385,cs),
(391,765,ls),
(373,793,o),
(340,793,o),
(324,766,cs),
(95,386,ls),
(86,371,o),
(86,353,o),
(95,338,cs),
(324,-22,ls),
(341,-49,o),
(374,-49,o),
(391,-23,cs),
(463,85,ls),
(475,104,o),
(493,104,o),
(505,85,cs),
(573,-18,ls),
(581,-30,o),
(596,-38,o),
(608,-38,cs)
);
},
{
closed = 1;
nodes = (
(199,340,ls),
(190,355,o),
(190,368,o),
(198,382,cs),
(338,620,ls),
(350,641,o),
(367,640,o),
(379,621,cs),
(531,382,ls),
(540,367,o),
(539,354,o),
(530,340,cs),
(503,300,ls),
(491,281,o),
(473,281,o),
(461,300,cs),
(453,312,ls),
(445,324,o),
(430,332,o),
(418,332,cs),
(395,332,o),
(376,313,o),
(376,290,cs),
(376,282,o),
(381,273,o),
(385,266,cs),
(418,216,ls),
(427,202,o),
(427,188,o),
(418,174,cs),
(380,117,ls),
(367,98,o),
(350,98,o),
(338,118,cs)
);
}
);
width = 700;
}
);
unicode = (81,113);
},
{
glyphname = R;
lastChange = "2023-12-29 15:13:58 +0000";
layers = (
{
layerId = m002;
shapes = (
{
closed = 1;
nodes = (
(322,360,l),
(322,360,o),
(321,347,o),
(321,348,c),
(623,540,l),
(678,580,o),
(657,641,o),
(598,656,cs),
(252,738,ls),
(210,749,o),
(163,726,o),
(157,677,cs),
(103,48,ls),
(101,7,o),
(136,-26,o),
(180,-26,cs),
(218,-26,o),
(255,0,o),
(256,38,c),
(274,244,ls),
(274,243,o),
(267,239,o),
(247,229,c),
(466,20,ls),
(475,11,o),
(498,2,o),
(517,2,cs),
(557,2,o),
(594,31,o),
(594,71,cs),
(594,92,o),
(584,109,o),
(571,120,c)
);
},
{
closed = 1;
nodes = (
(303,595,ls),
(303,600,o),
(286,588,o),
(285,588,cs),
(423,555,ls),
(420,556,o),
(416,577,o),
(417,578,c),
(261,479,l),
(262,479,o),
(293,464,o),
(293,467,cs)
);
}
);
width = 700;
},
{
layerId = m003;
shapes = (
{
closed = 1;
nodes = (
(281,334,ls),
(266,349,o),
(267,364,o),
(285,376,cs),
(631,596,l),
(661,617,o),
(655,656,o),
(619,665,cs),
(219,760,ls),
(194,766,o),
(173,751,o),
(170,723,cs),
(108,-1,ls),
(107,-24,o),
(124,-47,o),
(150,-47,cs),
(172,-47,o),
(191,-30,o),
(192,-9,cs),
(212,231,ls),
(214,256,o),
(232,262,o),
(250,245,cs),
(511,-4,ls),
(517,-10,o),
(527,-14,o),
(538,-14,cs),
(561,-14,o),
(580,5,o),
(580,28,cs),
(580,40,o),
(574,52,o),
(565,60,cs)
);
},
{
closed = 1;
nodes = (
(246,633,ls),
(248,654,o),
(261,663,o),
(281,658,cs),
(441,620,ls),
(467,614,o),
(471,595,o),
(448,580,cs),
(269,466,ls),
(248,452,o),
(232,461,o),
(234,487,cs)
);
}
);
width = 700;
}
);
unicode = (82,114);
},
{
glyphname = S;
lastChange = "2024-01-03 15:36:30 +0000";
layers = (
{
anchors = (
{
name = bottom;
pos = (349,51);
},
{
name = top;
pos = (379,747);
}
);
background = {
shapes = (
{
closed = 1;
nodes = (
(410,-49,ls),
(434,-57,o),
(462,-54,o),
(469,-30,cs),
(585,376,ls),
(593,405,o),
(577,429,o),
(548,430,cs),
(224,437,ls),
(200,438,o),
(190,454,o),
(205,473,cs),
(328,634,ls),
(341,651,o),
(353,648,o),
(370,638,cs),
(503,563,ls),
(511,558,o),
(525,551,o),
(537,551,cs),
(560,551,o),
(583,576,o),
(583,599,cs),
(583,607,o),
(576,622,o),
(565,630,cs),
(367,763,ls),
(345,778,o),
(320,779,o),
(304,756,cs),
(69,419,ls),
(50,392,o),
(68,360,o),
(102,359,cs),
(446,349,ls),
(470,348,o),
(475,335,o),
(471,315,cs),
(418,66,ls),
(416,56,o),
(413,59,o),
(404,61,cs),
(102,142,ls),
(96,144,o),
(86,150,o),
(75,150,cs),
(52,150,o),
(33,131,o),
(33,108,cs),
(33,95,o),
(40,77,o),
(50,74,cs)
);
}
);
};
layerId = m002;
shapes = (
{
closed = 1;
nodes = (
(383,3,ls),
(415,-11,o),
(455,1,o),
(469,33,cs),
(605,344,ls),
(623,386,o),
(597,414,o),
(558,421,cs),
(249,479,l),
(249,479,o),
(268,475,o),
(260,464,cs),
(369,625,ls),
(372,630,o),
(349,625,o),
(350,624,cs),
(519,514,l),
(534,506,o),
(549,503,o),
(561,503,cs),
(600,503,o),
(636,531,o),
(636,570,cs),
(636,593,o),
(624,611,o),
(605,625,c),
(377,771,ls),
(344,791,o),
(303,784,o),
(283,756,cs),
(75,449,ls),
(47,411,o),
(74,377,o),
(116,369,cs),
(443,306,ls),
(438,307,o),
(431,310,o),
(432,315,c),
(359,147,l),
(358,143,o),
(379,153,o),
(379,151,c),
(148,248,l),
(138,251,o),
(125,253,o),
(118,253,cs),
(79,253,o),
(43,226,o),
(43,187,cs),
(43,158,o),
(61,138,o),
(87,126,cs)
);
}
);
width = 700;
},
{
anchors = (
{
name = bottom;
pos = (350,0);
},
{
name = top;
pos = (385,800);
}
);
background = {
shapes = (
{
closed = 1;
nodes = (
(410,-49,ls),
(434,-57,o),
(462,-54,o),
(469,-30,cs),
(585,376,ls),
(593,405,o),
(577,429,o),
(548,430,cs),
(224,437,ls),
(200,438,o),
(190,454,o),
(205,473,cs),
(328,634,ls),
(341,651,o),
(353,648,o),
(370,638,cs),
(503,563,ls),
(511,558,o),
(525,551,o),
(537,551,cs),
(560,551,o),
(583,576,o),
(583,599,cs),
(583,607,o),
(576,622,o),
(565,630,cs),
(367,763,ls),
(345,778,o),
(320,779,o),
(304,756,cs),
(69,419,ls),
(50,392,o),
(68,360,o),
(102,359,cs),
(446,349,ls),
(470,348,o),
(475,335,o),
(471,315,cs),
(418,66,ls),
(416,56,o),
(413,59,o),
(404,61,cs),
(102,142,ls),
(96,144,o),
(86,150,o),
(75,150,cs),
(52,150,o),
(33,131,o),
(33,108,cs),
(33,95,o),
(40,77,o),
(50,74,cs)
);
}
);
};
layerId = m003;
shapes = (
{
closed = 1;
nodes = (
(408,-22,ls),
(426,-30,o),
(439,-23,o),
(447,-6,cs),
(602,352,ls),
(610,371,o),
(603,385,o),
(583,389,cs),
(226,457,ls),
(204,461,o),
(199,476,o),
(210,496,cs),
(315,681,ls),
(324,697,o),
(341,701,o),
(357,690,cs),
(552,563,ls),
(559,559,o),
(566,557,o),
(574,557,cs),
(596,557,o),
(614,575,o),
(614,597,cs),
(614,611,o),
(607,624,o),
(596,631,cs),
(335,799,ls),
(318,810,o),
(303,806,o),
(293,790,cs),
(76,441,ls),
(64,422,o),
(70,406,o),
(92,402,cs),
(469,329,ls),
(489,325,o),
(497,311,o),
(489,292,cs),
(405,98,ls),
(397,81,o),
(383,74,o),
(365,82,cs),
(100,193,ls),
(96,195,o),
(90,196,o),
(85,196,cs),
(63,196,o),
(45,178,o),
(45,156,cs),
(45,139,o),
(55,125,o),
(70,119,cs)
);
}
);
width = 700;
}
);
unicode = (83,115);
},
{
glyphname = T;
lastChange = "2023-12-29 15:13:58 +0000";
layers = (
{
layerId = m002;
shapes = (
{
closed = 1;
nodes = (
(384,-2,o),
(420,27,o),
(420,67,cs),
(420,610,ls),
(420,613,o),
(386,598,o),
(396,598,cs),
(496,598,ls),
(484,598,o),
(478,606,o),
(480,599,cs),
(513,494,ls),
(521,467,o),
(555,448,o),
(585,448,cs),
(637,448,o),
(672,492,o),
(657,539,c),
(601,688,ls),
(591,716,o),
(558,735,o),
(527,735,cs),
(158,735,ls),
(127,735,o),
(94,716,o),
(81,682,c),
(41,542,ls),
(27,499,o),
(67,458,o),
(115,458,cs),
(145,458,o),
(180,476,o),
(189,510,cs),
(211,600,l),
(201,599,o),
(196,598,o),
(193,598,cs),
(292,598,ls),
(301,598,o),
(267,613,o),
(267,610,cs),
(267,67,ls),
(267,27,o),
(304,-2,o),
(344,-2,cs)
);
}
);
width = 700;
},
{
layerId = m003;
shapes = (
{
closed = 1;
nodes = (
(366,-20,o),
(385,-1,o),
(385,22,cs),
(385,646,ls),
(385,657,o),
(392,669,o),
(403,669,cs),
(518,669,ls),
(530,669,o),
(540,656,o),
(543,645,cs),
(581,524,ls),
(586,508,o),
(603,497,o),
(620,497,cs),
(652,497,o),
(668,530,o),
(659,554,cs),
(596,723,ls),
(589,742,o),
(572,753,o),
(554,753,cs),
(129,753,ls),
(107,753,o),
(92,739,o),
(86,720,cs),
(39,560,ls),
(32,536,o),
(52,508,o),
(80,508,cs),
(100,508,o),
(115,522,o),
(120,541,cs),
(147,646,ls),
(150,656,o),
(158,669,o),
(169,669,cs),
(283,669,ls),
(294,669,o),
(301,657,o),
(301,646,cs),
(301,22,ls),
(301,-1,o),
(320,-20,o),
(343,-20,cs)
);
}
);
width = 700;
}
);
unicode = (84,116);
},
{
glyphname = U;
lastChange = "2024-01-03 15:42:57 +0000";
layers = (
{
layerId = m002;
shapes = (
{
closed = 1;
nodes = (
(451,316,ls),
(451,311,o),
(451,311,o),
(449,308,cs),
(339,150,ls),
(340,152,o),
(346,154,o),
(360,158,c),
(240,311,ls),
(239,312,o),
(239,312,o),
(239,314,cs),
(235,667,ls),
(235,707,o),
(198,736,o),
(158,736,cs),
(118,736,o),
(82,707,o),
(82,667,cs),
(86,292,ls),
(86,271,o),
(92,257,o),
(104,243,cs),
(299,6,ls),
(328,-29,o),
(390,-29,o),
(418,9,cs),
(588,248,ls),
(599,264,o),
(604,277,o),
(604,297,cs),
(608,672,ls),
(608,712,o),
(572,741,o),
(532,741,cs),
(492,741,o),
(455,712,o),
(455,672,cs)
);
}
);
width = 700;
},
{
anchors = (
{
name = bottom;
pos = (350,0);
},
{
name = ogonek;
pos = (630,10);
},
{
name = top;
pos = (350,800);
},
{
name = topright;
pos = (680,800);
}
);
layerId = m003;
shapes = (
{
closed = 1;
nodes = (
(513,309,ls),
(513,299,o),
(511,291,o),
(503,280,cs),
(376,98,ls),
(364,81,o),
(348,79,o),
(334,96,cs),
(187,281,ls),
(180,290,o),
(177,298,o),
(177,307,cs),
(172,713,ls),
(172,736,o),
(153,755,o),
(130,755,cs),
(107,755,o),
(88,736,o),
(88,713,cs),
(93,282,ls),
(93,269,o),
(96,258,o),
(106,246,cs),
(328,-24,ls),
(346,-46,o),
(374,-47,o),
(392,-22,cs),
(587,252,ls),
(595,263,o),
(597,275,o),
(597,287,cs),
(602,719,ls),
(602,742,o),
(583,761,o),
(560,761,cs),
(537,761,o),
(518,742,o),
(518,719,cs)
);
}
);
width = 700;
}
);
metricLeft = H;
metricRight = H;
unicode = (85,117);
},
{
glyphname = V;
lastChange = "2023-12-29 15:13:58 +0000";
layers = (
{
annotations = (
{
pos = (849.374,-124.531);
type = Text;
}
);
layerId = m002;
shapes = (
{
closed = 1;
nodes = (
(322,271,ls),
(321,268,o),
(362,280,o),
(365,270,cs),
(226,695,ls),
(215,730,o),
(185,749,o),
(152,749,cs),
(102,749,o),
(64,706,o),
(79,661,cs),
(271,50,ls),
(291,-13,o),
(388,-13,o),
(408,49,cs),
(621,653,ls),
(639,701,o),
(599,744,o),
(549,744,cs),
(519,744,o),
(486,726,o),
(477,699,cs)
);
}
);
width = 700;
},
{
annotations = (
{
pos = (849.374,-124.531);
type = Text;
}
);
layerId = m003;
shapes = (
{
closed = 1;
nodes = (
(362,243,ls),
(352,216,o),
(333,214,o),
(324,243,cs),
(164,732,ls),
(157,753,o),
(143,768,o),
(122,768,cs),
(93,768,o),
(74,740,o),
(82,715,cs),
(303,13,ls),
(316,-27,o),
(360,-27,o),
(373,11,cs),
(618,707,ls),
(627,732,o),
(610,763,o),
(579,763,cs),
(561,763,o),
(546,752,o),
(540,735,cs)
);
}
);
width = 700;
}
);
unicode = (86,118);
},
{
glyphname = W;
lastChange = "2024-01-03 15:41:08 +0000";
layers = (
{
layerId = m002;
shapes = (
{
closed = 1;
nodes = (
(534,256,ls),
(526,226,o),
(502,226,o),
(493,256,cs),
(388,609,ls),
(379,639,o),
(351,639,o),
(340,609,cs),
(219,266,ls),
(208,236,o),
(185,236,o),
(178,266,cs),
(80,714,ls),
(76,731,o),
(63,743,o),
(46,743,cs),
(24,743,o),
(7,724,o),
(11,703,cs),
(158,17,ls),
(164,-13,o),
(203,-13,o),
(213,16,cs),
(336,383,ls),
(346,413,o),
(375,413,o),
(384,383,cs),
(488,15,ls),
(497,-15,o),
(535,-18,o),
(543,15,cs),
(721,711,ls),
(727,733,o),
(708,753,o),
(686,753,cs),
(669,753,o),
(656,741,o),
(652,724,cs)
);
}
);
width = 700;
},
{
layerId = m003;
shapes = (
{
closed = 1;
nodes = (
(534,256,ls),
(527,226,o),
(502,226,o),
(493,256,cs),
(388,609,ls),
(379,639,o),
(351,639,o),
(340,609,cs),
(219,266,ls),
(208,236,o),
(184,236,o),
(178,266,cs),
(80,754,ls),
(77,771,o),
(63,783,o),
(46,783,cs),
(24,783,o),
(7,764,o),
(11,743,cs),
(158,17,ls),
(164,-13,o),
(203,-13,o),
(213,16,cs),
(336,383,ls),
(346,413,o),
(375,413,o),
(384,383,cs),
(488,15,ls),
(497,-15,o),
(535,-18,o),
(543,15,cs),
(721,751,ls),
(726,773,o),
(708,793,o),
(686,793,cs),
(669,793,o),
(656,781,o),
(652,764,cs)
);
}
);
width = 700;
}
);
unicode = (87,119);
},
{
glyphname = X;
lastChange = "2023-12-29 15:13:58 +0000";
layers = (
{
layerId = m002;
shapes = (
{
closed = 1;
nodes = (
(428,385,l),
(428,384,o),
(428,384,o),
(428,384,c),
(616,629,ls),
(625,640,o),
(631,654,o),
(631,670,cs),
(631,711,o),
(594,739,o),
(554,739,cs),
(532,739,o),
(502,729,o),
(490,708,c),
(326,474,l),
(326,475,o),
(357,475,o),
(356,476,cs),
(201,698,ls),
(187,718,o),
(159,728,o),
(139,728,cs),
(99,728,o),
(62,698,o),
(62,658,cs),
(62,644,o),
(68,632,o),
(74,621,c),
(256,382,ls),
(258,379,o),
(258,386,o),
(257,385,cs),
(56,130,ls),
(48,120,o),
(41,106,o),
(41,90,cs),
(41,49,o),
(78,20,o),
(118,20,cs),
(136,20,o),
(165,30,o),
(181,51,cs),
(355,290,l),
(355,289,o),
(348,288,o),
(330,287,c),
(519,25,ls),
(532,8,o),
(559,-3,o),
(581,-3,cs),
(621,-3,o),
(658,25,o),
(658,66,cs),
(658,82,o),
(652,96,o),
(643,107,cs)
);
}
);
width = 700;
},
{
layerId = m003;
shapes = (
{
closed = 1;
nodes = (
(403,366,ls),
(392,380,o),
(392,393,o),
(403,408,cs),
(619,690,ls),
(623,695,o),
(627,706,o),
(627,715,cs),
(627,739,o),
(608,758,o),
(585,758,cs),
(573,758,o),
(559,753,o),
(551,741,cs),
(361,472,ls),
(348,454,o),
(331,454,o),
(319,472,cs),
(141,727,ls),
(133,738,o),
(120,745,o),
(107,745,cs),
(84,745,o),
(65,725,o),
(65,702,cs),
(65,692,o),
(70,682,o),
(73,676,c),
(279,406,ls),
(290,391,o),
(290,378,o),
(279,364,cs),
(49,73,ls),
(45,68,o),
(41,57,o),
(41,48,cs),
(41,24,o),
(60,5,o),
(83,5,cs),
(95,5,o),
(109,11,o),
(117,22,cs),
(319,300,ls),
(332,317,o),
(348,317,o),
(361,300,cs),
(582,-5,ls),
(590,-16,o),
(604,-22,o),
(616,-22,cs),
(639,-22,o),
(658,-3,o),
(658,21,cs),
(658,30,o),
(654,41,o),
(650,46,cs)
);
}
);
width = 700;
}
);
unicode = (88,120);
},
{
glyphname = Y;
lastChange = "2023-12-29 15:13:58 +0000";
layers = (
{
layerId = m002;
shapes = (
{
closed = 1;
nodes = (
(329,13,ls),
(374,14,o),
(407,29,o),
(425,81,cs),
(621,662,l),
(639,706,o),
(598,751,o),
(548,751,cs),
(518,751,o),
(485,733,o),
(476,705,cs),
(384,428,ls),
(383,424,o),
(420,431,o),
(420,430,c),
(228,714,ls),
(198,760,o),
(91,763,o),
(91,665,c),
(93,656,o),
(97,647,o),
(103,638,cs),
(331,302,ls),
(334,298,o),
(335,292,o),
(334,286,c),
(290,141,ls),
(291,145,o),
(294,148,o),
(311,148,cs),
(178,148,ls),
(138,148,o),
(101,119,o),
(101,79,cs),
(101,39,o),
(138,11,o),
(178,11,cs)
);
}
);
width = 700;
},
{
layerId = m003;
shapes = (
{
closed = 1;
nodes = (
(323,-5,ls),
(363,-4,o),
(378,7,o),
(391,47,cs),
(617,714,l),
(626,738,o),
(608,770,o),
(577,770,cs),
(559,770,o),
(543,759,o),
(538,742,cs),
(432,423,ls),
(424,399,o),
(405,396,o),
(391,417,cs),
(171,743,ls),
(158,763,o),
(130,772,o),
(108,751,cs),
(91,733,o),
(94,711,o),
(103,697,cs),
(368,306,ls),
(377,293,o),
(379,280,o),
(375,265,cs),
(323,93,ls),
(319,80,o),
(315,76,o),
(304,76,cs),
(151,76,ls),
(128,76,o),
(109,57,o),
(109,34,cs),
(109,11,o),
(128,-8,o),
(151,-8,cs)
);
}
);
width = 700;
}
);
unicode = (89,121);
},
{
glyphname = Z;
lastChange = "2023-12-29 15:13:58 +0000";
layers = (
{
layerId = m002;
shapes = (
{
closed = 1;
nodes = (
(454,135,ls),
(453,129,o),
(465,138,o),
(465,138,c),
(246,135,ls),
(250,135,o),
(261,115,o),
(262,116,cs),
(621,632,ls),
(659,686,o),
(616,735,o),
(561,735,cs),
(202,736,ls),
(167,736,o),
(137,714,o),
(128,690,c),
(76,574,ls),
(54,521,o),
(98,478,o),
(147,478,cs),
(176,478,o),
(205,495,o),
(218,519,c),
(253,602,l),
(256,607,o),
(242,603,o),
(247,603,cs),
(449,602,ls),
(450,602,o),
(423,609,o),
(432,621,cs),
(67,102,ls),
(30,48,o),
(72,-2,o),
(128,-2,cs),
(518,1,ls),
(554,1,o),
(587,23,o),
(594,54,cs),
(645,259,ls),
(657,306,o),
(616,344,o),
(569,344,cs),
(539,344,o),
(505,325,o),
(494,292,c)
);
}
);
width = 700;
},
{
layerId = m003;
shapes = (
{
closed = 1;
nodes = (
(515,93,ls),
(511,75,o),
(499,67,o),
(482,67,cs),
(230,63,ls),
(205,63,o),
(197,78,o),
(211,99,cs),
(624,692,ls),
(643,720,o),
(627,753,o),
(593,753,cs),
(180,754,ls),
(162,754,o),
(145,744,o),
(138,727,cs),
(77,590,ls),
(66,562,o),
(85,531,o),
(116,531,cs),
(133,531,o),
(148,541,o),
(154,555,cs),
(197,652,ls),
(204,667,o),
(215,675,o),
(232,675,cs),
(464,674,ls),
(488,674,o),
(496,658,o),
(482,638,cs),
(63,41,ls),
(43,13,o),
(61,-20,o),
(95,-20,cs),
(543,-17,ls),
(565,-17,o),
(581,-3,o),
(586,16,cs),
(644,252,ls),
(651,279,o),
(630,304,o),
(602,304,cs),
(582,304,o),
(566,290,o),
(561,273,cs)
);
}
);
width = 700;
}
);
unicode = (90,122);
},
{
glyphname = zero;
lastChange = "2023-12-29 15:13:58 +0000";
layers = (
{
layerId = m002;
shapes = (
{
closed = 1;
nodes = (
(348,558,l),
(347,559,o),
(317,559,o),
(316,558,c),
(453,340,ls),
(455,337,o),
(455,342,o),
(454,340,c),
(297,133,l),
(294,133,o),
(328,130,o),
(329,133,c),
(205,326,ls),
(203,330,o),
(203,333,o),
(205,337,cs)
);
},
{
closed = 1;
nodes = (
(237,0,ls),
(269,-47,o),
(343,-50,o),
(378,-4,cs),
(594,285,ls),
(618,318,o),
(621,349,o),
(599,383,cs),
(404,695,ls),
(372,746,o),
(293,747,o),
(260,696,cs),
(54,377,ls),
(32,344,o),
(31,314,o),
(53,281,cs)
);
},
{
closed = 1;
nodes = (
(369,259,o),
(416,297,o),
(416,349,cs),
(416,400,o),
(369,438,o),
(319,438,cs),
(269,438,o),
(221,401,o),
(221,349,cs),
(221,296,o),
(268,259,o),
(319,259,cs)
);
}
);
width = 700;
},
{
layerId = m003;
shapes = (
{
closed = 1;
nodes = (
(312,608,ls),
(324,627,o),
(342,627,o),
(354,608,cs),
(511,358,ls),
(520,344,o),
(520,331,o),
(510,317,cs),
(331,80,ls),
(318,62,o),
(301,63,o),
(289,82,cs),
(146,308,ls),
(137,323,o),
(137,335,o),
(146,350,cs)
);
},
{
closed = 1;
nodes = (
(262,-32,ls),
(284,-64,o),
(323,-69,o),
(349,-35,cs),
(598,297,ls),
(614,319,o),
(616,346,o),
(601,369,cs),
(377,728,ls),
(354,764,o),
(312,764,o),
(289,729,cs),
(51,361,ls),
(36,339,o),
(36,313,o),
(51,291,cs)
);
},
{
closed = 1;
nodes = (
(354,282,o),
(384,312,o),
(384,349,cs),
(384,385,o),
(354,415,o),
(318,415,cs),
(281,415,o),
(251,385,o),
(251,349,cs),
(251,312,o),
(281,282,o),
(318,282,cs)
);
}
);
width = 700;
}
);
unicode = 48;
},
{
glyphname = one;
lastChange = "2023-12-29 15:13:58 +0000";
layers = (
{
layerId = m002;
shapes = (
{
closed = 1;
nodes = (
(541,18,ls),
(581,18,o),
(617,46,o),
(617,86,cs),
(617,126,o),
(581,153,o),
(541,153,cs),
(427,153,ls),
(425,153,o),
(427,147,o),
(441,126,c),
(457,682,ls),
(457,758,o),
(376,781,o),
(327,745,cs),
(150,619,l),
(130,607,o),
(106,589,o),
(106,556,cs),
(106,516,o),
(143,487,o),
(183,487,cs),
(195,487,o),
(215,490,o),
(234,504,cs),
(334,581,l),
(335,581,o),
(301,585,o),
(301,589,cs),
(286,148,ls),
(286,142,o),
(297,153,o),
(299,153,cs),
(167,153,ls),
(127,153,o),
(91,125,o),
(91,85,cs),
(91,45,o),
(127,16,o),
(167,16,cs)
);
}
);
width = 700;
},
{
layerId = m003;
shapes = (
{
closed = 1;
nodes = (
(569,-1,ls),
(592,-1,o),
(611,18,o),
(611,41,cs),
(611,64,o),
(592,81,o),
(569,81,cs),
(438,81,ls),
(419,81,o),
(408,92,o),
(409,111,cs),
(426,726,ls),
(427,773,o),
(388,797,o),
(349,769,cs),
(148,625,ls),
(140,620,o),
(115,608,o),
(115,581,cs),
(115,558,o),
(134,539,o),
(157,539,cs),
(165,539,o),
(175,541,o),
(188,551,cs),
(303,638,ls),
(323,653,o),
(340,643,o),
(339,618,cs),
(322,111,ls),
(321,91,o),
(310,81,o),
(291,81,cs),
(139,81,ls),
(116,81,o),
(97,62,o),
(97,39,cs),
(97,16,o),
(116,-3,o),
(139,-3,cs)
);
}
);
width = 700;
}
);
unicode = 49;
},
{
glyphname = two;
lastChange = "2023-12-29 15:13:58 +0000";
layers = (
{
layerId = m002;
shapes = (
{
closed = 1;
nodes = (
(263,149,ls),
(268,149,o),
(279,125,o),
(278,127,c),
(554,399,l),
(584,432,o),
(586,463,o),
(561,502,cs),
(408,727,l),
(372,773,o),
(305,774,o),
(270,735,cs),
(79,529,ls),
(69,519,o),
(61,505,o),
(61,486,cs),
(61,446,o),
(98,419,o),
(138,419,cs),
(157,419,o),
(186,428,o),
(197,443,c),
(341,600,l),
(340,602,o),
(312,604,o),
(314,601,cs),
(415,458,ls),
(416,456,o),
(417,463,o),
(415,460,c),
(83,135,l),
(27,75,o),
(76,13,o),
(145,13,cs),
(538,13,ls),
(578,13,o),
(614,42,o),
(614,81,cs),
(614,120,o),
(578,149,o),
(538,149,cs)
);
}
);
width = 700;
},
{
layerId = m003;
shapes = (
{
closed = 1;
nodes = (
(252,76,ls),
(225,76,o),
(217,94,o),
(236,113,cs),
(551,424,ls),
(573,446,o),
(574,472,o),
(557,498,cs),
(378,759,ls),
(357,788,o),
(321,793,o),
(294,763,cs),
(77,528,ls),
(70,521,o),
(66,512,o),
(66,501,cs),
(66,478,o),
(85,460,o),
(108,460,cs),
(119,460,o),
(132,465,o),
(139,473,cs),
(307,656,ls),
(321,672,o),
(337,671,o),
(349,653,cs),
(465,489,ls),
(475,474,o),
(474,460,o),
(461,447,cs),
(81,74,ls),
(47,40,o),
(65,-6,o),
(116,-6,cs),
(568,-6,ls),
(591,-6,o),
(610,13,o),
(610,35,cs),
(610,57,o),
(591,76,o),
(568,76,cs)
);
}
);
width = 700;
}
);
unicode = 50;
},
{
glyphname = three;
lastChange = "2023-12-29 15:13:58 +0000";
layers = (
{
layerId = m002;
shapes = (
{
closed = 1;
nodes = (
(257,3,ls),
(300,-37,o),
(374,-29,o),
(407,18,cs),
(580,260,ls),
(620,317,o),
(602,373,o),
(541,399,cs),
(392,465,l),
(391,466,o),
(390,460,o),
(390,441,c),
(560,565,ls),
(648,630,o),
(594,727,o),
(507,727,cs),
(233,728,ls),
(198,728,o),
(158,712,o),
(134,678,c),
(90,607,ls),
(87,601,o),
(82,584,o),
(82,576,cs),
(82,536,o),
(119,507,o),
(159,507,cs),
(183,507,o),
(211,521,o),
(225,542,cs),
(254,590,l),
(255,591,o),
(257,591,o),
(261,591,cs),
(400,588,ls),
(384,589,o),
(385,605,o),
(387,608,c),
(266,519,ls),
(201,469,o),
(215,400,o),
(283,366,cs),
(436,294,ls),
(434,295,o),
(431,306,o),
(430,305,cs),
(305,128,ls),
(304,127,o),
(330,131,o),
(329,132,cs),
(160,284,l),
(149,296,o),
(125,304,o),
(106,304,cs),
(66,304,o),
(29,276,o),
(29,236,cs),
(29,218,o),
(37,202,o),
(51,188,cs)
);
}
);
width = 700;
},
{
layerId = m003;
shapes = (
{
closed = 1;
nodes = (
(279,-22,ls),
(313,-53,o),
(357,-48,o),
(383,-12,cs),
(582,268,ls),
(607,304,o),
(604,352,o),
(556,373,cs),
(385,449,ls),
(364,458,o),
(361,476,o),
(381,490,cs),
(569,627,ls),
(624,667,o),
(606,746,o),
(535,746,cs),
(220,748,ls),
(190,748,o),
(164,734,o),
(147,709,cs),
(99,631,ls),
(96,626,o),
(93,616,o),
(93,609,cs),
(93,586,o),
(112,567,o),
(135,567,cs),
(149,567,o),
(163,576,o),
(170,587,cs),
(206,644,ls),
(215,658,o),
(224,664,o),
(253,663,cs),
(414,660,ls),
(442,659,o),
(440,629,o),
(427,619,cs),
(286,514,ls),
(241,480,o),
(249,425,o),
(298,401,cs),
(474,318,ls),
(492,309,o),
(497,294,o),
(485,277,cs),
(342,76,ls),
(330,60,o),
(315,58,o),
(300,71,cs),
(102,249,ls),
(95,256,o),
(85,260,o),
(74,260,cs),
(51,260,o),
(32,241,o),
(32,218,cs),
(32,207,o),
(38,195,o),
(46,187,cs)
);
}
);
width = 700;
}
);
unicode = 51;
},
{
glyphname = four;
lastChange = "2023-12-29 15:13:58 +0000";
layers = (
{
layerId = m002;
shapes = (
{
closed = 1;
nodes = (
(467,-19,o),
(501,10,o),
(503,49,cs),
(507,186,ls),
(507,191,o),
(496,181,o),
(496,181,c),
(542,184,ls),
(581,186,o),
(616,213,o),
(616,252,cs),
(616,293,o),
(577,325,o),
(536,321,cs),
(510,318,l),
(512,314,o),
(513,311,o),
(513,309,cs),
(527,646,l),
(527,730,o),
(428,751,o),
(382,696,cs),
(40,281,ls),
(-9,221,o),
(32,158,o),
(107,159,cs),
(370,172,l),
(370,172,o),
(354,186,o),
(354,180,cs),
(350,50,ls),
(350,10,o),
(387,-19,o),
(427,-19,cs)
);
},
{
closed = 1;
nodes = (
(212,303,o),
(240,294,o),
(231,283,cs),
(406,496,ls),
(404,494,o),
(367,509,o),
(367,505,cs),
(360,306,l),
(360,306,o),
(373,311,o),
(372,311,cs),
(213,303,ls)
);
}
);
width = 700;
},
{
layerId = m003;
shapes = (
{
closed = 1;
nodes = (
(466,-38,o),
(484,-19,o),
(485,4,cs),
(490,162,ls),
(491,181,o),
(501,191,o),
(520,192,cs),
(573,195,ls),
(596,196,o),
(615,214,o),
(615,237,cs),
(615,260,o),
(596,281,o),
(573,279,cs),
(526,275,ls),
(506,273,o),
(495,285,o),
(496,305,cs),
(512,691,ls),
(513,745,o),
(462,766,o),
(427,724,cs),
(34,247,ls),
(2,207,o),
(26,166,o),
(74,167,cs),
(376,182,ls),
(396,183,o),
(407,173,o),
(406,153,cs),
(401,4,ls),
(401,-19,o),
(420,-38,o),
(443,-38,cs)
);
},
{
closed = 1;
nodes = (
(174,257,o),
(165,274,o),
(182,295,cs),
(384,540,ls),
(402,562,o),
(422,554,o),
(421,526,cs),
(412,298,ls),
(411,280,o),
(400,269,o),
(382,268,cs),
(200,258,ls)
);
}
);
width = 700;
}
);
unicode = 52;
},
{
glyphname = five;
lastChange = "2023-12-29 15:13:58 +0000";
layers = (
{
layerId = m002;
shapes = (
{
closed = 1;
nodes = (
(209,746,ls),
(169,746,o),
(127,721,o),
(119,673,c),
(87,407,ls),
(80,331,o),
(159,302,o),
(211,331,cs),
(387,430,ls),
(390,432,o),
(367,436,o),
(370,431,cs),
(467,296,l),
(467,296,o),
(467,296,o),
(467,296,c),
(318,135,ls),
(316,133,o),
(344,132,o),
(341,135,c),
(229,289,ls),
(216,307,o),
(186,317,o),
(166,317,cs),
(126,317,o),
(89,289,o),
(89,249,cs),
(89,233,o),
(95,219,o),
(104,208,cs),
(250,10,l),
(279,-36,o),
(351,-39,o),
(387,1,cs),
(606,230,ls),
(636,262,o),
(642,297,o),
(616,335,cs),
(477,539,l),
(453,580,o),
(396,591,o),
(357,569,cs),
(221,497,ls),
(226,500,o),
(250,490,o),
(250,486,cs),
(264,614,ls),
(264,619,o),
(249,611,o),
(252,611,cs),
(534,609,ls),
(574,609,o),
(610,637,o),
(610,677,cs),
(610,717,o),
(574,746,o),
(534,746,cs)
);
}
);
width = 700;
},
{
layerId = m003;
shapes = (
{
closed = 1;
nodes = (
(187,767,ls),
(155,767,o),
(133,746,o),
(129,715,cs),
(92,409,ls),
(87,364,o),
(125,336,o),
(166,359,cs),
(368,473,ls),
(384,482,o),
(398,480,o),
(409,464,cs),
(522,305,ls),
(532,290,o),
(531,276,o),
(519,263,cs),
(345,76,ls),
(331,61,o),
(314,62,o),
(302,79,cs),
(171,257,ls),
(163,268,o),
(149,274,o),
(137,274,cs),
(114,274,o),
(95,255,o),
(95,232,cs),
(95,223,o),
(99,212,o),
(103,207,cs),
(273,-24,ls),
(295,-56,o),
(333,-55,o),
(358,-28,cs),
(610,236,ls),
(629,257,o),
(634,285,o),
(616,311,cs),
(454,549,ls),
(437,576,o),
(407,584,o),
(378,568,cs),
(222,485,ls),
(201,474,o),
(185,484,o),
(188,508,cs),
(204,657,ls),
(206,675,o),
(218,685,o),
(236,685,cs),
(560,683,ls),
(583,683,o),
(602,702,o),
(602,725,cs),
(602,748,o),
(583,767,o),
(560,767,cs)
);
}
);
width = 700;
}
);
unicode = 53;
},
{
glyphname = six;
lastChange = "2023-12-29 15:13:58 +0000";
layers = (
{
layerId = m002;
shapes = (
{
closed = 1;
nodes = (
(296,-5,ls),
(332,-44,o),
(399,-41,o),
(431,1,cs),
(604,230,ls),
(635,271,o),
(628,305,o),
(594,338,c),
(419,491,ls),
(386,520,o),
(331,520,o),
(299,493,cs),
(240,442,ls),
(246,447,o),
(280,425,o),
(280,425,c),
(372,623,ls),
(375,630,o),
(356,621,o),
(356,621,c),
(522,561,l),
(562,544,o),
(626,571,o),
(626,624,cs),
(626,653,o),
(606,675,o),
(578,687,c),
(369,763,l),
(327,783,o),
(269,764,o),
(252,720,cs),
(80,302,ls),
(62,261,o),
(69,241,o),
(86,224,cs)
);
},
{
closed = 1;
nodes = (
(364,364,l),
(364,366,o),
(346,366,o),
(347,364,c),
(459,268,l),
(459,268,o),
(458,277,o),
(457,276,cs),
(347,134,l),
(344,131,o),
(373,131,o),
(370,134,cs),
(239,278,l),
(239,278,o),
(238,267,o),
(238,267,c)
);
}
);
width = 700;
},
{
layerId = m003;
shapes = (
{
closed = 1;
nodes = (
(322,-36,ls),
(347,-63,o),
(383,-64,o),
(407,-32,cs),
(606,231,ls),
(627,260,o),
(620,287,o),
(597,309,cs),
(399,482,ls),
(375,503,o),
(345,503,o),
(322,484,cs),
(257,428,ls),
(234,409,o),
(215,422,o),
(228,450,cs),
(334,677,ls),
(342,695,o),
(355,700,o),
(373,693,cs),
(566,623,ls),
(590,614,o),
(622,631,o),
(622,662,cs),
(622,679,o),
(611,695,o),
(594,701,cs),
(353,789,ls),
(322,802,o),
(292,789,o),
(280,759,cs),
(83,282,ls),
(71,254,o),
(71,237,o),
(83,224,cs)
);
},
{
closed = 1;
nodes = (
(336,391,ls),
(350,402,o),
(364,402,o),
(378,390,cs),
(506,281,ls),
(521,268,o),
(522,254,o),
(510,239,cs),
(382,76,ls),
(369,59,o),
(354,58,o),
(340,74,cs),
(189,239,ls),
(176,254,o),
(177,268,o),
(193,281,cs)
);
}
);
width = 700;
}
);
unicode = 54;
},
{
glyphname = seven;
lastChange = "2023-12-29 15:13:58 +0000";
layers = (
{
layerId = m002;
shapes = (
{
closed = 1;
nodes = (
(460,299,l),
(461,304,o),
(441,298,o),
(453,298,cs),
(539,298,ls),
(579,298,o),
(616,327,o),
(616,367,cs),
(616,407,o),
(579,435,o),
(539,435,cs),
(498,434,ls),
(504,434,o),
(516,427,o),
(515,422,c),
(614,634,ls),
(644,698,o),
(594,742,o),
(537,742,cs),
(222,736,ls),
(190,736,o),
(156,721,o),
(137,692,cs),
(55,562,ls),
(50,553,o),
(46,541,o),
(46,530,cs),
(46,490,o),
(83,462,o),
(123,462,cs),
(149,462,o),
(178,477,o),
(188,496,c),
(254,599,l),
(257,605,o),
(247,600,o),
(250,600,cs),
(458,604,ls),
(450,604,o),
(439,611,o),
(441,617,c),
(357,433,ls),
(353,426,o),
(364,433,o),
(363,433,cs),
(218,431,ls),
(178,431,o),
(141,402,o),
(141,362,cs),
(141,322,o),
(178,294,o),
(218,294,cs),
(315,295,ls),
(317,295,o),
(293,300,o),
(298,310,cs),
(192,82,ls),
(168,33,o),
(208,-15,o),
(262,-15,cs),
(287,-15,o),
(318,-1,o),
(331,24,cs)
);
}
);
width = 700;
},
{
layerId = m003;
shapes = (
{
closed = 1;
nodes = (
(436,303,ls),
(443,319,o),
(454,325,o),
(471,325,cs),
(570,325,ls),
(593,325,o),
(612,344,o),
(612,367,cs),
(612,390,o),
(593,409,o),
(570,409,cs),
(522,408,ls),
(499,408,o),
(490,423,o),
(500,444,cs),
(614,689,ls),
(632,728,o),
(610,762,o),
(567,762,cs),
(205,755,ls),
(180,755,o),
(160,742,o),
(147,722,cs),
(55,577,ls),
(52,572,o),
(49,562,o),
(49,555,cs),
(49,532,o),
(68,513,o),
(91,513,cs),
(105,513,o),
(119,522,o),
(126,533,cs),
(202,652,ls),
(210,665,o),
(221,672,o),
(237,672,cs),
(476,677,ls),
(499,677,o),
(508,663,o),
(499,642,cs),
(402,429,ls),
(395,413,o),
(384,407,o),
(367,407,cs),
(200,404,ls),
(177,404,o),
(158,385,o),
(158,362,cs),
(158,339,o),
(177,320,o),
(200,320,cs),
(312,321,ls),
(335,321,o),
(344,307,o),
(334,286,cs),
(212,24,ls),
(199,-3,o),
(220,-35,o),
(251,-35,cs),
(268,-35,o),
(282,-25,o),
(289,-11,cs)
);
}
);
width = 700;
}
);
unicode = 55;
},
{
glyphname = eight;
lastChange = "2023-12-29 15:13:58 +0000";
layers = (
{
layerId = m002;
shapes = (
{
closed = 1;
nodes = (
(598,202,l),
(634,241,o),
(629,282,o),
(587,317,cs),
(457,423,ls),
(458,422,o),
(457,407,o),
(457,407,c),
(573,493,ls),
(617,523,o),
(621,571,o),
(578,610,c),
(425,736,l),
(395,764,o),
(334,768,o),
(300,734,c),
(152,602,ls),
(108,564,o),
(109,518,o),
(156,483,cs),
(254,409,l),
(254,407,o),
(254,421,o),
(256,422,c),
(115,318,ls),
(68,283,o),
(67,239,o),
(104,200,cs),
(280,20,ls),
(313,-15,o),
(375,-16,o),
(407,16,cs)
);
},
{
closed = 1;
nodes = (
(353,146,o),
(357,145,o),
(358,144,cs),
(250,253,l),
(251,250,o),
(245,243,o),
(247,244,c),
(361,335,ls),
(366,339,o),
(345,338,o),
(347,335,c),
(455,246,l),
(460,243,o),
(454,251,o),
(455,254,c),
(345,148,l)
);
},
{
closed = 1;
nodes = (
(348,491,o),
(367,491,o),
(367,493,c),
(298,551,ls),
(297,552,o),
(296,548,o),
(293,533,c),
(373,603,ls),
(377,607,o),
(356,606,o),
(355,605,c),
(425,546,l),
(427,556,o),
(428,560,o),
(425,557,cs),
(348,493,l)
);
}
);
width = 700;
},
{
layerId = m003;
shapes = (
{
closed = 1;
nodes = (
(599,199,ls),
(625,225,o),
(621,256,o),
(594,279,cs),
(444,401,ls),
(427,415,o),
(428,429,o),
(445,442,cs),
(577,538,ls),
(607,559,o),
(609,595,o),
(580,620,cs),
(404,764,ls),
(379,785,o),
(348,783,o),
(326,763,cs),
(152,608,ls),
(125,584,o),
(125,551,o),
(154,528,cs),
(269,442,ls),
(286,428,o),
(286,413,o),
(269,400,cs),
(107,280,ls),
(76,256,o),
(77,223,o),
(100,199,cs),
(303,-8,ls),
(327,-33,o),
(360,-34,o),
(383,-11,cs)
);
},
{
closed = 1;
nodes = (
(355,69,o),
(340,70,o),
(327,83,cs),
(200,211,ls),
(187,225,o),
(188,241,o),
(203,253,cs),
(334,358,ls),
(348,369,o),
(362,370,o),
(376,358,cs),
(503,253,ls),
(518,241,o),
(519,226,o),
(505,212,cs),
(369,82,ls)
);
},
{
closed = 1;
nodes = (
(365,472,o),
(351,472,o),
(337,485,cs),
(260,550,ls),
(244,563,o),
(245,578,o),
(260,590,cs),
(345,665,ls),
(359,677,o),
(373,679,o),
(387,666,cs),
(468,598,ls),
(484,585,o),
(484,572,o),
(468,559,cs),
(379,484,ls)
);
}
);
width = 700;
}
);
unicode = 56;
},
{
glyphname = .notdef;
lastChange = "2023-12-29 15:13:27 +0000";
layers = (
{
layerId = m002;
shapes = (
{
closed = 1;
nodes = (
(383,355,l),
(173,750,l),
(136,750,l),
(365,320,l),
(131,-120,l),
(168,-120,l),
(383,285,l),
(599,-120,l),
(636,-120,l),
(402,320,l),
(630,750,l),
(593,750,l)
);
},
{
closed = 1;
nodes = (
(163,161,l),
(110,317,l),
(173,458,l),
(221,360,l),
(244,372,l),
(177,515,l),
(169,515,l),
(80,317,l),
(154,105,l),
(166,104,l),
(238,253,l),
(214,263,l)
);
},
{
closed = 1;
nodes = (
(539,326,l),
(606,463,l),
(639,379,l),
(662,391,l),
(612,520,l),
(604,520,l),
(503,316,l),
(597,127,l),
(625,131,l),
(541,302,l),
(655,302,l),
(655,326,l)
);
}
);
width = 742;
},
{
layerId = m003;
shapes = (
{
closed = 1;
nodes = (
(383,355,l),
(173,750,l),
(136,750,l),
(365,320,l),
(131,-120,l),
(168,-120,l),
(383,285,l),
(599,-120,l),
(636,-120,l),
(402,320,l),
(630,750,l),
(593,750,l)
);
},
{
closed = 1;
nodes = (
(163,161,l),
(110,317,l),
(173,458,l),
(221,360,l),
(244,372,l),
(177,515,l),
(169,515,l),
(80,317,l),
(154,105,l),
(166,104,l),
(238,253,l),
(214,263,l)
);
},
{
closed = 1;
nodes = (
(539,326,l),
(606,463,l),
(639,379,l),
(662,391,l),
(612,520,l),
(604,520,l),
(503,316,l),
(597,127,l),
(625,131,l),
(541,302,l),
(655,302,l),
(655,326,l)
);
}
);
width = 742;
}
);
},
{
glyphname = period;
lastChange = "2023-12-29 15:14:39 +0000";
layers = (
{
layerId = m002;
shapes = (
{
closed = 1;
nodes = (
(348,132,ls),
(299,132,o),
(252,94,o),
(252,43,cs),
(252,-8,o),
(299,-46,o),
(348,-46,cs),
(353,-46,ls),
(402,-46,o),
(449,-8,o),
(449,43,cs),
(449,94,o),
(402,132,o),
(353,132,cs)
);
}
);
width = 700;
},
{
layerId = m003;
shapes = (
{
closed = 1;
nodes = (
(348,109,ls),
(313,109,o),
(283,79,o),
(283,43,cs),
(283,7,o),
(313,-23,o),
(348,-23,cs),
(353,-23,ls),
(388,-23,o),
(418,7,o),
(418,43,cs),
(418,79,o),
(388,109,o),
(353,109,cs)
);
}
);
width = 700;
}
);
unicode = 46;
},
{
glyphname = comma;
lastChange = "2023-12-29 15:14:39 +0000";
layers = (
{
layerId = m002;
shapes = (
{
closed = 1;
nodes = (
(362,24,ls),
(369,37,o),
(374,49,o),
(374,65,cs),
(374,109,o),
(334,141,o),
(291,141,cs),
(261,141,o),
(228,125,o),
(218,102,cs),
(133,-103,ls),
(129,-112,o),
(126,-120,o),
(126,-131,cs),
(126,-168,o),
(160,-194,o),
(196,-194,cs),
(223,-194,o),
(248,-179,o),
(256,-165,cs)
);
}
);
width = 700;
},
{
layerId = m003;
shapes = (
{
closed = 1;
nodes = (
(338,50,ls),
(343,58,o),
(347,68,o),
(347,79,cs),
(347,106,o),
(324,129,o),
(297,129,cs),
(280,129,o),
(262,121,o),
(256,107,cs),
(159,-127,ls),
(156,-133,o),
(153,-140,o),
(153,-147,cs),
(153,-166,o),
(169,-182,o),
(188,-182,cs),
(200,-182,o),
(212,-176,o),
(217,-167,cs)
);
}
);
width = 700;
}
);
unicode = 44;
},
{
glyphname = colon;
lastChange = "2024-01-03 15:43:42 +0000";
layers = (
{
layerId = m002;
shapes = (
{
closed = 1;
nodes = (
(328,188,ls),
(273,188,o),
(221,146,o),
(221,89,cs),
(221,33,o),
(272,-10,o),
(328,-10,cs),
(333,-10,ls),
(389,-10,o),
(440,33,o),
(440,89,cs),
(440,146,o),
(388,188,o),
(333,188,cs)
);
},
{
closed = 1;
nodes = (
(328,536,ls),
(272,536,o),
(221,493,o),
(221,437,cs),
(221,380,o),
(273,338,o),
(328,338,cs),
(333,338,ls),
(388,338,o),
(440,380,o),
(440,437,cs),
(440,493,o),
(389,536,o),
(333,536,cs)
);
}
);
width = 700;
},
{
layerId = m003;
shapes = (
{
closed = 1;
nodes = (
(328,156,ls),
(292,156,o),
(261,126,o),
(261,89,cs),
(261,53,o),
(292,22,o),
(328,22,cs),
(333,22,ls),
(369,22,o),
(400,53,o),
(400,89,cs),
(400,126,o),
(369,156,o),
(333,156,cs)
);
},
{
closed = 1;
nodes = (
(328,504,ls),
(292,504,o),
(261,473,o),
(261,437,cs),
(261,400,o),
(292,370,o),
(328,370,cs),
(333,370,ls),
(369,370,o),
(400,400,o),
(400,437,cs),
(400,473,o),
(369,504,o),
(333,504,cs)
);
}
);
width = 700;
}
);
unicode = 58;
},
{
glyphname = exclam;
lastChange = "2023-12-29 15:14:39 +0000";
layers = (
{
layerId = m002;
shapes = (
{
closed = 1;
nodes = (
(448,659,ls),
(450,697,o),
(417,725,o),
(377,725,cs),
(342,725,o),
(309,701,o),
(307,666,cs),
(283,236,l),
(283,198,o),
(316,171,o),
(354,171,cs),
(389,171,o),
(422,196,o),
(424,229,cs)
);
},
{
pos = (-2,-36);
ref = period;
}
);
width = 700;
},
{
layerId = m003;
shapes = (
{
closed = 1;
nodes = (
(416,708,ls),
(417,727,o),
(402,745,o),
(381,745,cs),
(362,745,o),
(347,730,o),
(346,712,cs),
(319,218,ls),
(318,199,o),
(333,181,o),
(354,181,cs),
(373,181,o),
(388,196,o),
(389,214,cs)
);
},
{
pos = (-2,-36);
ref = period;
}
);
width = 700;
}
);
unicode = 33;
},
{
glyphname = question;
lastChange = "2023-12-29 15:14:39 +0000";
layers = (
{
layerId = m002;
shapes = (
{
closed = 1;
nodes = (
(400,312,ls),
(400,319,o),
(399,316,o),
(398,314,c),
(576,509,ls),
(594,527,o),
(595,545,o),
(577,570,c),
(408,763,l),
(388,791,o),
(340,791,o),
(320,763,c),
(140,556,ls),
(131,547,o),
(124,534,o),
(124,517,cs),
(124,481,o),
(158,455,o),
(194,455,cs),
(214,455,o),
(237,464,o),
(247,476,cs),
(382,632,ls),
(380,630,o),
(348,630,o),
(346,632,cs),
(434,529,ls),
(431,532,o),
(431,542,o),
(433,546,c),
(273,374,ls),
(263,364,o),
(258,353,o),
(258,333,cs),
(261,243,ls),
(263,209,o),
(296,184,o),
(332,184,cs),
(371,184,o),
(404,212,o),
(402,249,cs)
);
},
{
pos = (-2,-36);
ref = period;
}
);
width = 700;
},
{
layerId = m003;
shapes = (
{
closed = 1;
nodes = (
(361,302,ls),
(361,313,o),
(362,319,o),
(369,327,cs),
(572,550,ls),
(580,558,o),
(580,568,o),
(572,578,cs),
(379,800,ls),
(370,811,o),
(360,811,o),
(351,800,cs),
(144,561,ls),
(138,555,o),
(135,547,o),
(135,538,cs),
(135,519,o),
(151,503,o),
(170,503,cs),
(181,503,o),
(190,508,o),
(196,515,cs),
(351,694,ls),
(360,705,o),
(370,705,o),
(379,694,cs),
(480,576,ls),
(488,566,o),
(488,557,o),
(480,548,cs),
(297,351,ls),
(290,344,o),
(289,337,o),
(289,326,cs),
(293,224,ls),
(294,206,o),
(309,191,o),
(328,191,cs),
(349,191,o),
(364,209,o),
(363,228,cs)
);
},
{
pos = (-2,-36);
ref = period;
}
);
width = 700;
}
);
unicode = 63;
},
{
glyphname = bullet;
lastChange = "2024-01-03 15:43:30 +0000";
layers = (
{
layerId = m002;
shapes = (
{
closed = 1;
nodes = (
(347,502,ls),
(279,502,o),
(181,394,o),
(181,343,cs),
(181,282,o),
(289,184,o),
(347,184,cs),
(354,184,ls),
(422,184,o),
(520,292,o),
(520,343,cs),
(520,404,o),
(412,502,o),
(354,502,cs)
);
}
);
width = 700;
},
{
layerId = m003;
shapes = (
{
closed = 1;
nodes = (
(345,605,ls),
(275,605,o),
(125,450,o),
(125,383,cs),
(125,313,o),
(278,161,o),
(345,161,cs),
(356,161,ls),
(426,161,o),
(576,316,o),
(576,383,cs),
(576,453,o),
(423,605,o),
(356,605,cs)
);
}
);
width = 700;
}
);
unicode = 8226;
},
{
glyphname = asterisk;
lastChange = "2023-12-29 15:14:39 +0000";
layers = (
{
layerId = m002;
shapes = (
{
closed = 1;
nodes = (
(413,473,ls),
(413,476,o),
(375,452,o),
(369,459,c),
(445,407,l),
(445,407,o),
(445,407,o),
(260,423,c),
(488,423,o),
(487,423,o),
(489,423,c),
(522,391,o),
(551,413,o),
(551,445,cs),
(551,466,o),
(541,479,o),
(524,490,cs),
(430,554,ls),
(436,550,o),
(436,529,o),
(430,525,cs),
(529,593,ls),
(543,604,o),
(551,616,o),
(551,634,cs),
(551,667,o),
(522,688,o),
(489,688,cs),
(480,688,o),
(460,682,o),
(457,682,c),
(371,621,ls),
(379,626,o),
(413,604,o),
(413,607,cs),
(413,694,ls),
(413,726,o),
(383,747,o),
(351,747,cs),
(319,747,o),
(289,726,o),
(289,694,cs),
(289,607,l),
(289,607,o),
(320,630,o),
(331,622,cs),
(259,673,l),
(259,673,o),
(259,673,o),
(443,656,c),
(215,656,o),
(216,656,o),
(214,656,c),
(182,688,o),
(152,667,o),
(152,634,cs),
(152,615,o),
(162,602,o),
(179,590,cs),
(273,526,l),
(267,529,o),
(267,550,o),
(273,553,c),
(178,488,l),
(162,480,o),
(152,466,o),
(152,445,cs),
(152,413,o),
(182,391,o),
(214,391,cs),
(225,391,o),
(236,394,o),
(249,401,c),
(331,457,ls),
(326,453,o),
(289,476,o),
(289,473,cs),
(289,394,ls),
(289,362,o),
(319,341,o),
(351,341,cs),
(383,341,o),
(413,362,o),
(413,394,cs)
);
}
);
width = 700;
},
{
layerId = m003;
shapes = (
{
closed = 1;
nodes = (
(376,462,ls),
(376,478,o),
(386,485,o),
(400,475,cs),
(486,416,ls),
(493,411,o),
(499,406,o),
(507,405,cs),
(508,405,o),
(509,405,o),
(510,405,cs),
(524,405,o),
(535,416,o),
(535,430,cs),
(535,439,o),
(531,446,o),
(524,451,cs),
(416,525,ls),
(403,534,o),
(403,544,o),
(416,553,cs),
(524,627,ls),
(531,632,o),
(535,639,o),
(535,648,cs),
(535,662,o),
(524,673,o),
(510,673,cs),
(505,673,o),
(500,671,o),
(496,669,c),
(400,603,ls),
(386,593,o),
(376,600,o),
(376,616,cs),
(376,716,ls),
(376,730,o),
(365,741,o),
(351,741,cs),
(337,741,o),
(326,730,o),
(326,716,cs),
(326,616,ls),
(326,600,o),
(316,594,o),
(302,604,cs),
(217,662,ls),
(210,667,o),
(204,672,o),
(196,673,cs),
(195,673,o),
(194,673,o),
(193,673,cs),
(179,673,o),
(168,662,o),
(168,648,cs),
(168,639,o),
(172,632,o),
(179,627,cs),
(287,553,ls),
(300,544,o),
(300,534,o),
(287,525,cs),
(179,451,ls),
(172,446,o),
(168,439,o),
(168,430,cs),
(168,416,o),
(179,405,o),
(193,405,cs),
(198,405,o),
(203,407,o),
(207,409,c),
(302,474,ls),
(316,484,o),
(326,478,o),
(326,462,cs),
(326,372,ls),
(326,358,o),
(337,347,o),
(351,347,cs),
(365,347,o),
(376,358,o),
(376,372,cs)
);
}
);
width = 700;
}
);
unicode = 42;
},
{
glyphname = numbersign;
lastChange = "2024-01-03 15:44:06 +0000";
layers = (
{
layerId = m002;
shapes = (
{
closed = 1;
nodes = (
(281,207,l),
(282,208,o),
(266,197,o),
(261,197,cs),
(355,197,ls),
(346,197,o),
(332,218,o),
(332,216,c),
(293,23,ls),
(285,-13,o),
(316,-42,o),
(353,-42,cs),
(380,-42,o),
(409,-24,o),
(414,0,cs),
(455,207,l),
(456,208,o),
(440,197,o),
(435,197,cs),
(559,197,ls),
(591,197,o),
(620,219,o),
(620,251,cs),
(620,283,o),
(591,305,o),
(559,305,cs),
(447,305,ls),
(440,305,o),
(439,291,o),
(461,240,c),
(499,427,ls),
(499,426,o),
(482,414,o),
(478,414,cs),
(602,414,ls),
(634,414,o),
(664,436,o),
(664,468,cs),
(664,500,o),
(634,522,o),
(602,522,cs),
(490,522,ls),
(499,522,o),
(513,501,o),
(513,503,c),
(548,676,ls),
(556,712,o),
(525,741,o),
(487,741,cs),
(461,741,o),
(432,723,o),
(427,699,cs),
(390,512,l),
(389,511,o),
(405,522,o),
(410,522,cs),
(316,522,ls),
(325,522,o),
(339,501,o),
(339,503,c),
(374,676,ls),
(382,712,o),
(351,741,o),
(313,741,cs),
(287,741,o),
(258,723,o),
(253,699,cs),
(216,512,ls),
(215,509,o),
(230,522,o),
(236,522,cs),
(114,522,ls),
(82,522,o),
(53,500,o),
(53,468,cs),
(53,436,o),
(82,414,o),
(114,414,cs),
(224,414,ls),
(217,414,o),
(200,434,o),
(201,432,c),
(173,294,l),
(173,294,o),
(188,305,o),
(193,305,cs),
(71,305,ls),
(39,305,o),
(9,283,o),
(9,251,cs),
(9,219,o),
(39,197,o),
(71,197,cs),
(181,197,ls),
(189,197,o),
(191,212,o),
(168,269,c),
(119,23,ls),
(111,-13,o),
(142,-42,o),
(180,-42,cs),
(206,-42,o),
(235,-24,o),
(240,0,cs)
);
},
{
closed = 1;
nodes = (
(324,425,l),
(325,426,o),
(310,414,o),
(304,414,cs),
(398,414,ls),
(406,414,o),
(408,430,o),
(385,492,c),
(347,294,l),
(347,294,o),
(362,305,o),
(367,305,cs),
(273,305,ls),
(266,305,o),
(265,291,o),
(287,240,c)
);
}
);
width = 700;
},
{
layerId = m003;
shapes = (
{
closed = 1;
nodes = (
(238,191,ls),
(239,198,o),
(243,201,o),
(250,201,cs),
(358,201,ls),
(365,201,o),
(368,198,o),
(366,191,cs),
(321,-32,ls),
(317,-53,o),
(334,-74,o),
(356,-74,cs),
(373,-74,o),
(387,-61,o),
(391,-46,cs),
(438,191,ls),
(439,198,o),
(443,201,o),
(450,201,cs),
(592,201,ls),
(612,201,o),
(627,216,o),
(627,236,cs),
(627,256,o),
(612,271,o),
(592,271,cs),
(463,271,ls),
(456,271,o),
(453,274,o),
(455,281,cs),
(487,441,ls),
(488,448,o),
(492,451,o),
(499,451,cs),
(642,451,ls),
(662,451,o),
(677,466,o),
(677,486,cs),
(677,506,o),
(662,521,o),
(642,521,cs),
(513,521,ls),
(506,521,o),
(503,524,o),
(505,531,cs),
(545,731,ls),
(549,752,o),
(532,773,o),
(510,773,cs),
(493,773,o),
(479,760,o),
(475,745,cs),
(433,531,ls),
(432,524,o),
(428,521,o),
(421,521,cs),
(313,521,ls),
(306,521,o),
(303,524,o),
(305,531,cs),
(345,731,ls),
(349,752,o),
(332,773,o),
(310,773,cs),
(293,773,o),
(279,760,o),
(275,745,cs),
(233,531,ls),
(232,524,o),
(228,521,o),
(221,521,cs),
(81,521,ls),
(61,521,o),
(46,506,o),
(46,486,cs),
(46,466,o),
(61,451,o),
(81,451,cs),
(207,451,ls),
(214,451,o),
(217,448,o),
(215,441,cs),
(183,281,ls),
(182,274,o),
(178,271,o),
(171,271,cs),
(31,271,ls),
(11,271,o),
(-4,256,o),
(-4,236,cs),
(-4,216,o),
(11,201,o),
(31,201,cs),
(158,201,ls),
(165,201,o),
(168,198,o),
(166,191,cs),
(121,-32,ls),
(117,-53,o),
(134,-74,o),
(156,-74,cs),
(173,-74,o),
(187,-61,o),
(191,-46,cs)
);
},
{
closed = 1;
nodes = (
(287,441,ls),
(288,448,o),
(292,451,o),
(299,451,cs),
(407,451,ls),
(414,451,o),
(417,448,o),
(415,441,cs),
(383,281,ls),
(382,274,o),
(378,271,o),
(371,271,cs),
(263,271,ls),
(256,271,o),
(253,274,o),
(255,281,cs)
);
}
);
width = 700;
}
);
unicode = 35;
},
{
glyphname = slash;
lastChange = "2023-12-29 15:14:12 +0000";
layers = (
{
layerId = m002;
shapes = (
{
closed = 1;
nodes = (
(652,774,ls),
(655,780,o),
(660,795,o),
(660,802,cs),
(660,842,o),
(623,871,o),
(583,871,cs),
(558,871,o),
(531,858,o),
(516,833,cs),
(46,-19,l),
(43,-27,o),
(40,-37,o),
(40,-47,cs),
(40,-87,o),
(76,-116,o),
(116,-116,cs),
(141,-116,o),
(168,-103,o),
(183,-78,cs)
);
}
);
width = 700;
},
{
layerId = m003;
shapes = (
{
closed = 1;
nodes = (
(655,846,l),
(657,852,o),
(660,860,o),
(660,866,cs),
(660,889,o),
(641,908,o),
(618,908,cs),
(603,908,o),
(590,899,o),
(582,886,cs),
(44,-91,l),
(42,-97,o),
(39,-105,o),
(39,-111,cs),
(39,-134,o),
(58,-153,o),
(81,-153,cs),
(96,-153,o),
(109,-144,o),
(117,-131,cs)
);
}
);
width = 700;
}
);
unicode = 47;
},
{
glyphname = hyphen;
lastChange = "2023-12-29 15:14:39 +0000";
layers = (
{
layerId = m002;
shapes = (
{
closed = 1;
nodes = (
(210,402,ls),
(170,402,o),
(134,373,o),
(134,333,cs),
(134,293,o),
(170,264,o),
(210,264,cs),
(491,264,ls),
(531,264,o),
(567,293,o),
(567,333,cs),
(567,373,o),
(531,402,o),
(491,402,cs)
);
}
);
width = 700;
},
{
layerId = m003;
shapes = (
{
closed = 1;
nodes = (
(189,375,ls),
(166,375,o),
(147,356,o),
(147,333,cs),
(147,310,o),
(166,291,o),
(189,291,cs),
(512,291,ls),
(535,291,o),
(554,310,o),
(554,333,cs),
(554,356,o),
(535,375,o),
(512,375,cs)
);
}
);
width = 700;
}
);
unicode = 45;
},
{
glyphname = endash;
lastChange = "2023-12-29 15:14:39 +0000";
layers = (
{
layerId = m002;
shapes = (
{
closed = 1;
nodes = (
(184,402,ls),
(144,402,o),
(107,373,o),
(107,333,cs),
(107,293,o),
(144,264,o),
(184,264,cs),
(517,264,ls),
(557,264,o),
(594,293,o),
(594,333,cs),
(594,373,o),
(557,402,o),
(517,402,cs)
);
}
);
width = 700;
},
{
layerId = m003;
shapes = (
{
closed = 1;
nodes = (
(159,375,ls),
(136,375,o),
(117,356,o),
(117,333,cs),
(117,310,o),
(136,291,o),
(159,291,cs),
(542,291,ls),
(565,291,o),
(584,310,o),
(584,333,cs),
(584,356,o),
(565,375,o),
(542,375,cs)
);
}
);
width = 700;
}
);
unicode = 8211;
},
{
glyphname = emdash;
lastChange = "2023-12-29 15:14:39 +0000";
layers = (
{
layerId = m002;
shapes = (
{
closed = 1;
nodes = (
(184,402,ls),
(144,402,o),
(107,373,o),
(107,333,cs),
(107,293,o),
(144,264,o),
(184,264,cs),
(517,264,ls),
(557,264,o),
(594,293,o),
(594,333,cs),
(594,373,o),
(557,402,o),
(517,402,cs)
);
}
);
width = 700;
},
{
layerId = m003;
shapes = (
{
closed = 1;
nodes = (
(159,375,ls),
(136,375,o),
(117,356,o),
(117,333,cs),
(117,310,o),
(136,291,o),
(159,291,cs),
(542,291,ls),
(565,291,o),
(584,310,o),
(584,333,cs),
(584,356,o),
(565,375,o),
(542,375,cs)
);
}
);
width = 700;
}
);
unicode = 8212;
},
{
glyphname = underscore;
lastChange = "2023-12-29 15:14:39 +0000";
layers = (
{
layerId = m002;
shapes = (
{
closed = 1;
nodes = (
(167,2,ls),
(127,2,o),
(90,-27,o),
(90,-67,cs),
(90,-107,o),
(127,-136,o),
(167,-136,cs),
(534,-136,ls),
(574,-136,o),
(611,-107,o),
(611,-67,cs),
(611,-27,o),
(574,2,o),
(534,2,cs)
);
}
);
width = 700;
},
{
layerId = m003;
shapes = (
{
closed = 1;
nodes = (
(139,-25,ls),
(116,-25,o),
(97,-44,o),
(97,-67,cs),
(97,-90,o),
(116,-109,o),
(139,-109,cs),
(562,-109,ls),
(585,-109,o),
(604,-90,o),
(604,-67,cs),
(604,-44,o),
(585,-25,o),
(562,-25,cs)
);
}
);
width = 700;
}
);
unicode = 95;
},
{
glyphname = parenleft;
lastChange = "2024-01-03 15:44:20 +0000";
layers = (
{
layerId = m002;
shapes = (
{
closed = 1;
nodes = (
(343,321,l),
(343,317,o),
(342,315,o),
(344,319,cs),
(592,747,ls),
(598,757,o),
(602,766,o),
(602,779,cs),
(602,815,o),
(568,841,o),
(532,841,cs),
(510,841,o),
(483,829,o),
(470,808,cs),
(201,346,l),
(192,328,o),
(192,314,o),
(201,294,c),
(437,-158,ls),
(447,-178,o),
(475,-191,o),
(500,-191,cs),
(536,-191,o),
(570,-166,o),
(570,-129,cs),
(570,-118,o),
(568,-110,o),
(563,-100,cs)
);
}
);
width = 700;
},
{
layerId = m003;
shapes = (
{
closed = 1;
nodes = (
(302,310,ls),
(299,316,o),
(299,321,o),
(303,328,cs),
(591,824,l),
(594,831,o),
(597,839,o),
(597,847,cs),
(597,872,o),
(577,892,o),
(552,892,cs),
(535,892,o),
(521,883,o),
(513,870,cs),
(205,340,ls),
(199,329,o),
(197,314,o),
(204,302,cs),
(475,-218,ls),
(483,-233,o),
(497,-242,o),
(515,-242,cs),
(539,-242,o),
(560,-223,o),
(560,-197,cs),
(560,-190,o),
(558,-182,o),
(555,-176,cs)
);
}
);
width = 700;
}
);
unicode = 40;
},
{
glyphname = bracketleft;
lastChange = "2024-01-03 15:44:28 +0000";
layers = (
{
layerId = m002;
shapes = (
{
closed = 1;
nodes = (
(356,-69,ls),
(359,-69,o),
(378,-86,o),
(378,-83,cs),
(364,703,l),
(364,703,o),
(362,699,o),
(357,690,c),
(536,697,ls),
(572,699,o),
(603,725,o),
(603,759,cs),
(603,797,o),
(565,824,o),
(529,822,cs),
(275,810,l),
(245,807,o),
(221,790,o),
(221,760,cs),
(239,-144,ls),
(239,-175,o),
(267,-194,o),
(297,-194,cs),
(568,-194,ls),
(605,-194,o),
(639,-168,o),
(639,-131,cs),
(639,-95,o),
(605,-69,o),
(568,-69,cs)
);
}
);
width = 700;
},
{
layerId = m003;
shapes = (
{
closed = 1;
nodes = (
(345,-153,ls),
(338,-153,o),
(334,-149,o),
(334,-143,cs),
(318,761,ls),
(318,768,o),
(321,772,o),
(327,772,cs),
(550,781,ls),
(575,782,o),
(593,803,o),
(593,826,cs),
(593,853,o),
(570,872,o),
(546,871,cs),
(254,858,ls),
(237,857,o),
(226,844,o),
(226,827,cs),
(246,-213,ls),
(246,-231,o),
(260,-243,o),
(277,-243,cs),
(589,-243,ls),
(614,-243,o),
(634,-223,o),
(634,-198,cs),
(634,-173,o),
(614,-153,o),
(589,-153,cs)
);
}
);
width = 700;
}
);
unicode = 91;
},
{
glyphname = guilsinglleft;
lastChange = "2023-12-29 15:14:39 +0000";
layers = (
{
layerId = m002;
shapes = (
{
closed = 1;
nodes = (
(330,259,ls),
(332,257,o),
(332,247,o),
(331,244,c),
(470,405,ls),
(479,414,o),
(485,426,o),
(485,444,cs),
(485,480,o),
(451,506,o),
(415,506,cs),
(396,506,o),
(377,499,o),
(360,484,c),
(186,280,ls),
(165,256,o),
(165,235,o),
(189,211,cs),
(352,47,ls),
(365,35,o),
(387,29,o),
(402,29,cs),
(438,29,o),
(472,55,o),
(472,91,cs),
(472,108,o),
(466,120,o),
(456,132,c)
);
}
);
width = 700;
},
{
layerId = m003;
shapes = (
{
closed = 1;
nodes = (
(296,233,ls),
(287,242,o),
(287,252,o),
(295,262,cs),
(455,447,ls),
(460,453,o),
(463,461,o),
(463,470,cs),
(463,489,o),
(447,505,o),
(428,505,cs),
(417,505,o),
(408,500,o),
(401,493,cs),
(199,258,ls),
(191,248,o),
(191,238,o),
(200,229,cs),
(388,40,ls),
(395,34,o),
(403,30,o),
(413,30,cs),
(432,30,o),
(448,46,o),
(448,65,cs),
(448,75,o),
(444,83,o),
(438,90,cs)
);
}
);
width = 700;
}
);
unicode = 8249;
},
{
glyphname = apple;
lastChange = "2023-12-29 15:13:27 +0000";
layers = (
{
layerId = m002;
shapes = (
{
closed = 1;
nodes = (
(280,603,l),
(229,599,o),
(199,564,o),
(195,513,c),
(280,513,l)
);
},
{
closed = 1;
nodes = (
(616,516,o),
(633,535,o),
(633,559,c),
(633,583,o),
(616,603,o),
(591,603,c),
(567,603,o),
(549,583,o),
(549,559,c),
(549,535,o),
(567,516,o),
(591,516,c)
);
},
{
closed = 1;
nodes = (
(1124,603,o),
(1106,583,o),
(1106,559,c),
(1106,535,o),
(1124,516,o),
(1149,516,c),
(1173,516,o),
(1191,535,o),
(1191,559,c),
(1191,583,o),
(1173,603,o),
(1149,603,c)
);
},
{
closed = 1;
nodes = (
(261,300,o),
(280,317,o),
(280,341,c),
(280,367,o),
(261,386,o),
(237,386,c),
(213,386,o),
(195,367,o),
(195,341,c),
(195,317,o),
(213,300,o),
(237,300,c)
);
},
{
closed = 1;
nodes = (
(465,300,o),
(483,317,o),
(483,341,c),
(483,367,o),
(465,386,o),
(440,386,c),
(417,386,o),
(398,367,o),
(398,341,c),
(398,317,o),
(417,300,o),
(440,300,c)
);
},
{
closed = 1;
nodes = (
(616,300,o),
(633,317,o),
(633,341,c),
(633,367,o),
(616,386,o),
(591,386,c),
(567,386,o),
(549,367,o),
(549,341,c),
(549,317,o),
(567,300,o),
(591,300,c)
);
},
{
closed = 1;
nodes = (
(819,300,o),
(836,317,o),
(836,341,c),
(836,367,o),
(819,386,o),
(795,386,c),
(770,386,o),
(753,367,o),
(753,341,c),
(753,317,o),
(770,300,o),
(795,300,c)
);
},
{
closed = 1;
nodes = (
(969,300,o),
(988,317,o),
(988,341,c),
(988,367,o),
(969,386,o),
(946,386,c),
(921,386,o),
(903,367,o),
(903,341,c),
(903,317,o),
(921,300,o),
(946,300,c)
);
},
{
closed = 1;
nodes = (
(1124,386,o),
(1106,367,o),
(1106,341,c),
(1106,317,o),
(1124,300,o),
(1149,300,c),
(1173,300,o),
(1191,317,o),
(1191,341,c),
(1191,367,o),
(1173,386,o),
(1149,386,c)
);
},
{
closed = 1;
nodes = (
(567,168,o),
(549,151,o),
(549,126,c),
(549,100,o),
(567,82,o),
(591,82,c),
(616,82,o),
(633,100,o),
(633,126,c),
(633,151,o),
(616,168,o),
(591,168,c)
);
},
{
closed = 1;
nodes = (
(1124,168,o),
(1106,151,o),
(1106,126,c),
(1106,100,o),
(1124,82,o),
(1149,82,c),
(1173,82,o),
(1191,100,o),
(1191,126,c),
(1191,151,o),
(1173,168,o),
(1149,168,c)
);
},
{
closed = 1;
nodes = (
(1338,386,l),
(1254,386,l),
(1257,333,o),
(1289,300,o),
(1338,295,c)
);
},
{
closed = 1;
nodes = (
(1464,295,l),
(1549,295,l),
(1545,350,o),
(1515,383,o),
(1464,386,c)
);
},
{
closed = 1;
nodes = (
(398,513,l),
(483,513,l),
(478,567,o),
(449,601,o),
(398,603,c)
);
},
{
closed = 1;
nodes = (
(753,513,l),
(836,513,l),
(833,567,o),
(803,601,o),
(753,603,c)
);
},
{
closed = 1;
nodes = (
(988,603,l),
(937,599,o),
(908,564,o),
(903,513,c),
(988,513,l)
);
},
{
closed = 1;
nodes = (
(1338,603,l),
(1289,599,o),
(1257,564,o),
(1254,513,c),
(1338,513,l)
);
},
{
closed = 1;
nodes = (
(1464,513,l),
(1549,513,l),
(1545,567,o),
(1515,601,o),
(1464,603,c)
);
},
{
closed = 1;
nodes = (
(280,170,l),
(195,170,l),
(199,116,o),
(229,82,o),
(280,78,c)
);
},
{
closed = 1;
nodes = (
(398,78,l),
(446,82,o),
(478,116,o),
(483,170,c),
(398,170,l)
);
},
{
closed = 1;
nodes = (
(753,78,l),
(801,82,o),
(833,116,o),
(836,170,c),
(753,170,l)
);
},
{
closed = 1;
nodes = (
(988,170,l),
(903,170,l),
(908,116,o),
(937,82,o),
(988,78,c)
);
},
{
closed = 1;
nodes = (
(1342,170,l),
(1257,170,l),
(1261,116,o),
(1292,82,o),
(1342,78,c)
);
},
{
closed = 1;
nodes = (
(1461,78,l),
(1511,82,o),
(1541,116,o),
(1545,170,c),
(1461,170,l)
);
},
{
closed = 1;
nodes = (
(316,605,o),
(297,585,o),
(297,561,c),
(297,537,o),
(316,519,o),
(340,519,c),
(364,519,o),
(382,537,o),
(382,561,c),
(382,585,o),
(364,605,o),
(340,605,c)
);
},
{
closed = 1;
nodes = (
(670,605,o),
(652,585,o),
(652,561,c),
(652,537,o),
(670,519,o),
(694,519,c),
(718,519,o),
(737,537,o),
(737,561,c),
(737,585,o),
(718,605,o),
(694,605,c)
);
},
{
closed = 1;
nodes = (
(1024,605,o),
(1006,585,o),
(1006,561,c),
(1006,537,o),
(1024,519,o),
(1048,519,c),
(1073,519,o),
(1090,537,o),
(1090,561,c),
(1090,585,o),
(1073,605,o),
(1048,605,c)
);
},
{
closed = 1;
nodes = (
(1378,605,o),
(1360,585,o),
(1360,561,c),
(1360,537,o),
(1378,519,o),
(1403,519,c),
(1426,519,o),
(1445,537,o),
(1445,561,c),
(1445,585,o),
(1426,605,o),
(1403,605,c)
);
},
{
closed = 1;
nodes = (
(1378,383,o),
(1360,366,o),
(1360,339,c),
(1360,316,o),
(1378,297,o),
(1403,297,c),
(1426,297,o),
(1445,316,o),
(1445,339,c),
(1445,366,o),
(1426,383,o),
(1403,383,c)
);
},
{
closed = 1;
nodes = (
(1273,494,o),
(1255,474,o),
(1255,450,c),
(1255,426,o),
(1273,408,o),
(1298,408,c),
(1321,408,o),
(1340,426,o),
(1340,450,c),
(1340,474,o),
(1321,494,o),
(1298,494,c)
);
},
{
closed = 1;
nodes = (
(215,497,o),
(195,476,o),
(195,452,c),
(195,428,o),
(215,410,o),
(237,410,c),
(261,410,o),
(280,428,o),
(280,452,c),
(280,476,o),
(261,497,o),
(237,497,c)
);
},
{
closed = 1;
nodes = (
(417,497,o),
(398,476,o),
(398,452,c),
(398,428,o),
(417,410,o),
(440,410,c),
(465,410,o),
(483,428,o),
(483,452,c),
(483,476,o),
(465,497,o),
(440,497,c)
);
},
{
closed = 1;
nodes = (
(569,497,o),
(551,476,o),
(551,452,c),
(551,428,o),
(569,410,o),
(594,410,c),
(616,410,o),
(636,428,o),
(636,452,c),
(636,476,o),
(616,497,o),
(594,497,c)
);
},
{
closed = 1;
nodes = (
(770,497,o),
(753,476,o),
(753,452,c),
(753,428,o),
(770,410,o),
(795,410,c),
(819,410,o),
(836,428,o),
(836,452,c),
(836,476,o),
(819,497,o),
(795,497,c)
);
},
{
closed = 1;
nodes = (
(924,497,o),
(905,476,o),
(905,452,c),
(905,428,o),
(924,410,o),
(947,410,c),
(972,410,o),
(990,428,o),
(990,452,c),
(990,476,o),
(972,497,o),
(947,497,c)
);
},
{
closed = 1;
nodes = (
(1024,388,o),
(1006,370,o),
(1006,344,c),
(1006,319,o),
(1024,301,o),
(1048,301,c),
(1073,301,o),
(1090,319,o),
(1090,344,c),
(1090,370,o),
(1073,388,o),
(1048,388,c)
);
},
{
closed = 1;
nodes = (
(215,279,o),
(195,261,o),
(195,234,c),
(195,211,o),
(215,193,o),
(237,193,c),
(261,193,o),
(280,211,o),
(280,234,c),
(280,261,o),
(261,279,o),
(237,279,c)
);
},
{
closed = 1;
nodes = (
(417,279,o),
(398,261,o),
(398,234,c),
(398,211,o),
(417,193,o),
(440,193,c),
(465,193,o),
(483,211,o),
(483,234,c),
(483,261,o),
(465,279,o),
(440,279,c)
);
},
{
closed = 1;
nodes = (
(569,279,o),
(551,261,o),
(551,234,c),
(551,211,o),
(569,193,o),
(594,193,c),
(616,193,o),
(636,211,o),
(636,234,c),
(636,261,o),
(616,279,o),
(594,279,c)
);
},
{
closed = 1;
nodes = (
(770,279,o),
(753,261,o),
(753,234,c),
(753,211,o),
(770,193,o),
(795,193,c),
(819,193,o),
(836,211,o),
(836,234,c),
(836,261,o),
(819,279,o),
(795,279,c)
);
},
{
closed = 1;
nodes = (
(924,279,o),
(905,261,o),
(905,234,c),
(905,211,o),
(924,193,o),
(947,193,c),
(972,193,o),
(990,211,o),
(990,234,c),
(990,261,o),
(972,279,o),
(947,279,c)
);
},
{
closed = 1;
nodes = (
(1479,279,o),
(1461,261,o),
(1461,234,c),
(1461,211,o),
(1479,193,o),
(1502,193,c),
(1527,193,o),
(1545,211,o),
(1545,234,c),
(1545,261,o),
(1527,279,o),
(1502,279,c)
);
},
{
closed = 1;
nodes = (
(316,170,o),
(297,152,o),
(297,128,c),
(297,102,o),
(316,84,o),
(340,84,c),
(364,84,o),
(382,102,o),
(382,128,c),
(382,152,o),
(364,170,o),
(340,170,c)
);
},
{
closed = 1;
nodes = (
(670,170,o),
(652,152,o),
(652,128,c),
(652,102,o),
(670,84,o),
(694,84,c),
(718,84,o),
(737,102,o),
(737,128,c),
(737,152,o),
(718,170,o),
(694,170,c)
);
},
{
closed = 1;
nodes = (
(1024,170,o),
(1006,152,o),
(1006,128,c),
(1006,102,o),
(1024,84,o),
(1048,84,c),
(1073,84,o),
(1090,102,o),
(1090,128,c),
(1090,152,o),
(1073,170,o),
(1048,170,c)
);
},
{
closed = 1;
nodes = (
(1378,170,o),
(1360,152,o),
(1360,128,c),
(1360,102,o),
(1378,84,o),
(1403,84,c),
(1426,84,o),
(1445,102,o),
(1445,128,c),
(1445,152,o),
(1426,170,o),
(1403,170,c)
);
}
);
width = 1744;
},
{
layerId = m003;
shapes = (
{
closed = 1;
nodes = (
(280,603,l),
(229,599,o),
(199,564,o),
(195,513,c),
(280,513,l)
);
},
{
closed = 1;
nodes = (
(616,516,o),
(633,535,o),
(633,559,c),
(633,583,o),
(616,603,o),
(591,603,c),
(567,603,o),
(549,583,o),
(549,559,c),
(549,535,o),
(567,516,o),
(591,516,c)
);
},
{
closed = 1;
nodes = (
(1124,603,o),
(1106,583,o),
(1106,559,c),
(1106,535,o),
(1124,516,o),
(1149,516,c),
(1173,516,o),
(1191,535,o),
(1191,559,c),
(1191,583,o),
(1173,603,o),
(1149,603,c)
);
},
{
closed = 1;
nodes = (
(261,300,o),
(280,317,o),
(280,341,c),
(280,367,o),
(261,386,o),
(237,386,c),
(213,386,o),
(195,367,o),
(195,341,c),
(195,317,o),
(213,300,o),
(237,300,c)
);
},
{
closed = 1;
nodes = (
(465,300,o),
(483,317,o),
(483,341,c),
(483,367,o),
(465,386,o),
(440,386,c),
(417,386,o),
(398,367,o),
(398,341,c),
(398,317,o),
(417,300,o),
(440,300,c)
);
},
{
closed = 1;
nodes = (
(616,300,o),
(633,317,o),
(633,341,c),
(633,367,o),
(616,386,o),
(591,386,c),
(567,386,o),
(549,367,o),
(549,341,c),
(549,317,o),
(567,300,o),
(591,300,c)
);
},
{
closed = 1;
nodes = (
(819,300,o),
(836,317,o),
(836,341,c),
(836,367,o),
(819,386,o),
(795,386,c),
(770,386,o),
(753,367,o),
(753,341,c),
(753,317,o),
(770,300,o),
(795,300,c)
);
},
{
closed = 1;
nodes = (
(969,300,o),
(988,317,o),
(988,341,c),
(988,367,o),
(969,386,o),
(946,386,c),
(921,386,o),
(903,367,o),
(903,341,c),
(903,317,o),
(921,300,o),
(946,300,c)
);
},
{
closed = 1;
nodes = (
(1124,386,o),
(1106,367,o),
(1106,341,c),
(1106,317,o),
(1124,300,o),
(1149,300,c),
(1173,300,o),
(1191,317,o),
(1191,341,c),
(1191,367,o),
(1173,386,o),
(1149,386,c)
);
},
{
closed = 1;
nodes = (
(567,168,o),
(549,151,o),
(549,126,c),
(549,100,o),
(567,82,o),
(591,82,c),
(616,82,o),
(633,100,o),
(633,126,c),
(633,151,o),
(616,168,o),
(591,168,c)
);
},
{
closed = 1;
nodes = (
(1124,168,o),
(1106,151,o),
(1106,126,c),
(1106,100,o),
(1124,82,o),
(1149,82,c),
(1173,82,o),
(1191,100,o),
(1191,126,c),
(1191,151,o),
(1173,168,o),
(1149,168,c)
);
},
{
closed = 1;
nodes = (
(1338,386,l),
(1254,386,l),
(1257,333,o),
(1289,300,o),
(1338,295,c)
);
},
{
closed = 1;
nodes = (
(1464,295,l),
(1549,295,l),
(1545,350,o),
(1515,383,o),
(1464,386,c)
);
},
{
closed = 1;
nodes = (
(398,513,l),
(483,513,l),
(478,567,o),
(449,601,o),
(398,603,c)
);
},
{
closed = 1;
nodes = (
(753,513,l),
(836,513,l),
(833,567,o),
(803,601,o),
(753,603,c)
);
},
{
closed = 1;
nodes = (
(988,603,l),
(937,599,o),
(908,564,o),
(903,513,c),
(988,513,l)
);
},
{
closed = 1;
nodes = (
(1338,603,l),
(1289,599,o),
(1257,564,o),
(1254,513,c),
(1338,513,l)
);
},
{
closed = 1;
nodes = (
(1464,513,l),
(1549,513,l),
(1545,567,o),
(1515,601,o),
(1464,603,c)
);
},
{
closed = 1;
nodes = (
(280,170,l),
(195,170,l),
(199,116,o),
(229,82,o),
(280,78,c)
);
},
{
closed = 1;
nodes = (
(398,78,l),
(446,82,o),
(478,116,o),
(483,170,c),
(398,170,l)
);
},
{
closed = 1;
nodes = (
(753,78,l),
(801,82,o),
(833,116,o),
(836,170,c),
(753,170,l)
);
},
{
closed = 1;
nodes = (
(988,170,l),
(903,170,l),
(908,116,o),
(937,82,o),
(988,78,c)
);
},
{
closed = 1;
nodes = (
(1342,170,l),
(1257,170,l),
(1261,116,o),
(1292,82,o),
(1342,78,c)
);
},
{
closed = 1;
nodes = (
(1461,78,l),
(1511,82,o),
(1541,116,o),
(1545,170,c),
(1461,170,l)
);
},
{
closed = 1;
nodes = (
(316,605,o),
(297,585,o),
(297,561,c),
(297,537,o),
(316,519,o),
(340,519,c),
(364,519,o),
(382,537,o),
(382,561,c),
(382,585,o),
(364,605,o),
(340,605,c)
);
},
{
closed = 1;
nodes = (
(670,605,o),
(652,585,o),
(652,561,c),
(652,537,o),
(670,519,o),
(694,519,c),
(718,519,o),
(737,537,o),
(737,561,c),
(737,585,o),
(718,605,o),
(694,605,c)
);
},
{
closed = 1;
nodes = (
(1024,605,o),
(1006,585,o),
(1006,561,c),
(1006,537,o),
(1024,519,o),
(1048,519,c),
(1073,519,o),
(1090,537,o),
(1090,561,c),
(1090,585,o),
(1073,605,o),
(1048,605,c)
);
},
{
closed = 1;
nodes = (
(1378,605,o),
(1360,585,o),
(1360,561,c),
(1360,537,o),
(1378,519,o),
(1403,519,c),
(1426,519,o),
(1445,537,o),
(1445,561,c),
(1445,585,o),
(1426,605,o),
(1403,605,c)
);
},
{
closed = 1;
nodes = (
(1378,383,o),
(1360,366,o),
(1360,339,c),
(1360,316,o),
(1378,297,o),
(1403,297,c),
(1426,297,o),
(1445,316,o),
(1445,339,c),
(1445,366,o),
(1426,383,o),
(1403,383,c)
);
},
{
closed = 1;
nodes = (
(1273,494,o),
(1255,474,o),
(1255,450,c),
(1255,426,o),
(1273,408,o),
(1298,408,c),
(1321,408,o),
(1340,426,o),
(1340,450,c),
(1340,474,o),
(1321,494,o),
(1298,494,c)
);
},
{
closed = 1;
nodes = (
(215,497,o),
(195,476,o),
(195,452,c),
(195,428,o),
(215,410,o),
(237,410,c),
(261,410,o),
(280,428,o),
(280,452,c),
(280,476,o),
(261,497,o),
(237,497,c)
);
},
{
closed = 1;
nodes = (
(417,497,o),
(398,476,o),
(398,452,c),
(398,428,o),
(417,410,o),
(440,410,c),
(465,410,o),
(483,428,o),
(483,452,c),
(483,476,o),
(465,497,o),
(440,497,c)
);
},
{
closed = 1;
nodes = (
(569,497,o),
(551,476,o),
(551,452,c),
(551,428,o),
(569,410,o),
(594,410,c),
(616,410,o),
(636,428,o),
(636,452,c),
(636,476,o),
(616,497,o),
(594,497,c)
);
},
{
closed = 1;
nodes = (
(770,497,o),
(753,476,o),
(753,452,c),
(753,428,o),
(770,410,o),
(795,410,c),
(819,410,o),
(836,428,o),
(836,452,c),
(836,476,o),
(819,497,o),
(795,497,c)
);
},
{
closed = 1;
nodes = (
(924,497,o),
(905,476,o),
(905,452,c),
(905,428,o),
(924,410,o),
(947,410,c),
(972,410,o),
(990,428,o),
(990,452,c),
(990,476,o),
(972,497,o),
(947,497,c)
);
},
{
closed = 1;
nodes = (
(1024,388,o),
(1006,370,o),
(1006,344,c),
(1006,319,o),
(1024,301,o),
(1048,301,c),
(1073,301,o),
(1090,319,o),
(1090,344,c),
(1090,370,o),
(1073,388,o),
(1048,388,c)
);
},
{
closed = 1;
nodes = (
(215,279,o),
(195,261,o),
(195,234,c),
(195,211,o),
(215,193,o),
(237,193,c),
(261,193,o),
(280,211,o),
(280,234,c),
(280,261,o),
(261,279,o),
(237,279,c)
);
},
{
closed = 1;
nodes = (
(417,279,o),
(398,261,o),
(398,234,c),
(398,211,o),
(417,193,o),
(440,193,c),
(465,193,o),
(483,211,o),
(483,234,c),
(483,261,o),
(465,279,o),
(440,279,c)
);
},
{
closed = 1;
nodes = (
(569,279,o),
(551,261,o),
(551,234,c),
(551,211,o),
(569,193,o),
(594,193,c),
(616,193,o),
(636,211,o),
(636,234,c),
(636,261,o),
(616,279,o),
(594,279,c)
);
},
{
closed = 1;
nodes = (
(770,279,o),
(753,261,o),
(753,234,c),
(753,211,o),
(770,193,o),
(795,193,c),
(819,193,o),
(836,211,o),
(836,234,c),
(836,261,o),
(819,279,o),
(795,279,c)
);
},
{
closed = 1;
nodes = (
(924,279,o),
(905,261,o),
(905,234,c),
(905,211,o),
(924,193,o),
(947,193,c),
(972,193,o),
(990,211,o),
(990,234,c),
(990,261,o),
(972,279,o),
(947,279,c)
);
},
{
closed = 1;
nodes = (
(1479,279,o),
(1461,261,o),
(1461,234,c),
(1461,211,o),
(1479,193,o),
(1502,193,c),
(1527,193,o),
(1545,211,o),
(1545,234,c),
(1545,261,o),
(1527,279,o),
(1502,279,c)
);
},
{
closed = 1;
nodes = (
(316,170,o),
(297,152,o),
(297,128,c),
(297,102,o),
(316,84,o),
(340,84,c),
(364,84,o),
(382,102,o),
(382,128,c),
(382,152,o),
(364,170,o),
(340,170,c)
);
},
{
closed = 1;
nodes = (
(670,170,o),
(652,152,o),
(652,128,c),
(652,102,o),
(670,84,o),
(694,84,c),
(718,84,o),
(737,102,o),
(737,128,c),
(737,152,o),
(718,170,o),
(694,170,c)
);
},
{
closed = 1;
nodes = (
(1024,170,o),
(1006,152,o),
(1006,128,c),
(1006,102,o),
(1024,84,o),
(1048,84,c),
(1073,84,o),
(1090,102,o),
(1090,128,c),
(1090,152,o),
(1073,170,o),
(1048,170,c)
);
},
{
closed = 1;
nodes = (
(1378,170,o),
(1360,152,o),
(1360,128,c),
(1360,102,o),
(1378,84,o),
(1403,84,c),
(1426,84,o),
(1445,102,o),
(1445,128,c),
(1445,152,o),
(1426,170,o),
(1403,170,c)
);
}
);
width = 1744;
}
);
unicode = 63743;
},
{
glyphname = at;
lastChange = "2024-01-03 15:43:19 +0000";
layers = (
{
background = {
shapes = (
{
closed = 1;
nodes = (
(363,-57,ls),
(350,-74,o),
(334,-72,o),
(321,-56,cs),
(50,284,ls),
(39,298,o),
(39,312,o),
(50,326,cs),
(336,686,ls),
(349,703,o),
(366,702,o),
(379,687,cs),
(670,354,ls),
(682,340,o),
(682,326,o),
(670,312,cs),
(561,192,ls),
(544,174,o),
(527,178,o),
(522,202,cs),
(480,408,ls),
(475,434,o),
(454,438,o),
(440,416,cs),
(332,248,ls),
(317,224,o),
(297,230,o),
(295,258,cs),
(286,374,ls),
(284,396,o),
(296,407,o),
(317,403,cs),
(459,376,l),
(467,375,o),
(477,381,o),
(477,391,c),
(477,398,o),
(472,404,o),
(465,406,c),
(285,439,ls),
(264,443,o),
(251,433,o),
(253,411,cs),
(271,166,ls),
(273,138,o),
(293,132,o),
(308,156,cs),
(426,338,ls),
(441,360,o),
(460,357,o),
(465,330,cs),
(504,139,ls),
(509,115,o),
(526,110,o),
(543,128,cs),
(710,312,ls),
(722,326,o),
(722,340,o),
(710,354,cs),
(377,733,ls),
(364,748,o),
(347,749,o),
(334,732,cs),
(12,326,ls),
(1,312,o),
(1,298,o),
(12,284,cs),
(321,-104,ls),
(334,-120,o),
(350,-122,o),
(363,-105,cs),
(456,11,l),
(458,13,o),
(459,16,o),
(459,20,c),
(459,28,o),
(452,35,o),
(444,35,c),
(439,35,o),
(435,33,o),
(432,29,c)
);
}
);
};
layerId = m002;
shapes = (
{
closed = 1;
nodes = (
(314,224,ls),
(303,209,o),
(290,214,o),
(289,232,cs),
(281,385,ls),
(280,398,o),
(288,406,o),
(301,405,cs),
(411,397,ls),
(427,396,o),
(431,385,o),
(422,372,cs)
);
},
{
closed = 1;
nodes = (
(322,-92,ls),
(335,-108,o),
(351,-109,o),
(364,-93,cs),
(457,16,ls),
(460,19,o),
(461,22,o),
(461,26,cs),
(461,34,o),
(454,41,o),
(446,41,cs),
(441,41,o),
(437,39,o),
(435,36,cs),
(357,-55,ls),
(348,-65,o),
(338,-65,o),
(329,-55,cs),
(52,286,ls),
(45,295,o),
(45,305,o),
(52,314,cs),
(346,687,ls),
(354,698,o),
(365,697,o),
(374,687,cs),
(667,349,ls),
(675,339,o),
(674,330,o),
(666,321,cs),
(550,195,ls),
(539,183,o),
(527,186,o),
(523,202,cs),
(479,397,ls),
(475,415,o),
(464,423,o),
(447,424,cs),
(280,436,ls),
(260,437,o),
(249,427,o),
(250,406,cs),
(262,165,ls),
(263,136,o),
(283,132,o),
(299,154,cs),
(436,341,ls),
(446,355,o),
(458,352,o),
(462,335,cs),
(504,154,ls),
(509,130,o),
(528,126,o),
(544,144,cs),
(700,314,ls),
(712,328,o),
(712,342,o),
(700,356,cs),
(380,727,ls),
(367,743,o),
(350,743,o),
(337,726,cs),
(20,321,ls),
(9,306,o),
(9,293,o),
(20,279,cs)
);
}
);
width = 700;
},
{
background = {
shapes = (
{
closed = 1;
nodes = (
(363,-57,ls),
(350,-74,o),
(334,-72,o),
(321,-56,cs),
(50,284,ls),
(39,298,o),
(39,312,o),
(50,326,cs),
(336,686,ls),
(349,703,o),
(366,702,o),
(379,687,cs),
(670,354,ls),
(682,340,o),
(682,326,o),
(670,312,cs),
(561,192,ls),
(544,174,o),
(527,178,o),
(522,202,cs),
(480,408,ls),
(475,434,o),
(454,438,o),
(440,416,cs),
(332,248,ls),
(317,224,o),
(297,230,o),
(295,258,cs),
(286,374,ls),
(284,396,o),
(296,407,o),
(317,403,cs),
(459,376,l),
(467,375,o),
(477,381,o),
(477,391,c),
(477,398,o),
(472,404,o),
(465,406,c),
(285,439,ls),
(264,443,o),
(251,433,o),
(253,411,cs),
(271,166,ls),
(273,138,o),
(293,132,o),
(308,156,cs),
(426,338,ls),
(441,360,o),
(460,357,o),
(465,330,cs),
(504,139,ls),
(509,115,o),
(526,110,o),
(543,128,cs),
(710,312,ls),
(722,326,o),
(722,340,o),
(710,354,cs),
(377,733,ls),
(364,748,o),
(347,749,o),
(334,732,cs),
(12,326,ls),
(1,312,o),
(1,298,o),
(12,284,cs),
(321,-104,ls),
(334,-120,o),
(350,-122,o),
(363,-105,cs),
(456,11,l),
(458,13,o),
(459,16,o),
(459,20,c),
(459,28,o),
(452,35,o),
(444,35,c),
(439,35,o),
(435,33,o),
(432,29,c)
);
}
);
};
layerId = m003;
shapes = (
{
closed = 1;
nodes = (
(306,230,ls),
(301,223,o),
(299,224,o),
(299,233,cs),
(291,386,ls),
(290,393,o),
(293,396,o),
(300,395,cs),
(410,387,ls),
(418,387,o),
(419,385,o),
(414,378,cs)
);
},
{
closed = 1;
nodes = (
(314,-98,ls),
(331,-119,o),
(355,-121,o),
(372,-99,cs),
(464,9,ls),
(468,13,o),
(471,19,o),
(471,26,cs),
(471,40,o),
(460,51,o),
(446,51,cs),
(438,51,o),
(431,47,o),
(427,42,cs),
(349,-48,l),
(345,-54,o),
(341,-54,o),
(337,-49,cs),
(60,292,ls),
(56,298,o),
(56,302,o),
(60,308,cs),
(354,681,ls),
(358,686,o),
(361,686,o),
(367,680,cs),
(659,343,ls),
(664,337,o),
(664,333,o),
(659,328,cs),
(543,202,ls),
(537,196,o),
(535,196,o),
(533,204,cs),
(489,399,ls),
(484,422,o),
(469,433,o),
(448,434,cs),
(281,446,ls),
(255,447,o),
(239,433,o),
(240,406,cs),
(252,165,ls),
(253,125,o),
(286,119,o),
(307,148,cs),
(444,335,ls),
(449,342,o),
(450,341,o),
(452,333,cs),
(494,152,ls),
(501,120,o),
(530,114,o),
(551,137,cs),
(707,307,ls),
(723,325,o),
(723,345,o),
(708,363,cs),
(388,733,ls),
(371,754,o),
(346,754,o),
(329,732,cs),
(12,327,ls),
(-2,308,o),
(-2,290,o),
(12,273,cs)
);
}
);
width = 700;
}
);
unicode = 64;
},
{
glyphname = ampersand;
lastChange = "2023-12-29 15:18:23 +0000";
layers = (
{
layerId = m002;
shapes = (
{
closed = 1;
nodes = (
(261,-91,o),
(311,-82,o),
(338,-52,cs),
(429,49,ls),
(443,65,o),
(457,64,o),
(471,48,cs),
(499,17,ls),
(513,1,o),
(534,-10,o),
(556,-10,cs),
(595,-10,o),
(630,17,o),
(630,56,cs),
(630,67,o),
(630,76,o),
(625,82,cs),
(560,166,ls),
(549,181,o),
(549,194,o),
(560,208,cs),
(576,228,ls),
(586,240,o),
(593,253,o),
(593,270,cs),
(593,309,o),
(558,342,o),
(519,342,cs),
(509,342,o),
(496,337,o),
(486,331,cs),
(464,317,ls),
(457,312,o),
(440,314,o),
(429,327,cs),
(395,369,ls),
(383,384,o),
(385,398,o),
(399,411,cs),
(489,491,ls),
(524,520,o),
(521,553,o),
(483,578,cs),
(310,696,ls),
(284,715,o),
(245,713,o),
(221,689,cs),
(113,576,ls),
(87,549,o),
(87,525,o),
(110,497,cs),
(163,432,ls),
(175,417,o),
(173,403,o),
(159,390,cs),
(33,279,ls),
(4,255,o),
(1,229,o),
(26,199,cs),
(235,-59,ls)
);
},
{
closed = 1;
nodes = (
(205,204,ls),
(193,219,o),
(194,233,o),
(208,246,cs),
(245,279,ls),
(260,292,o),
(275,290,o),
(287,275,cs),
(340,210,ls),
(351,196,o),
(351,182,o),
(339,168,cs),
(307,130,ls),
(294,114,o),
(278,113,o),
(265,130,cs)
);
},
{
closed = 1;
nodes = (
(289,480,o),
(274,481,o),
(262,497,cs),
(255,506,ls),
(244,520,o),
(242,535,o),
(253,548,cs),
(257,553,ls),
(266,564,o),
(280,562,o),
(293,551,cs),
(310,538,ls),
(327,524,o),
(327,509,o),
(310,496,cs),
(304,492,ls)
);
}
);
width = 700;
},
{
layerId = m003;
shapes = (
{
closed = 1;
nodes = (
(273,-112,o),
(289,-111,o),
(302,-95,cs),
(448,80,ls),
(461,96,o),
(477,97,o),
(490,80,cs),
(560,-7,ls),
(567,-16,o),
(578,-22,o),
(591,-22,cs),
(613,-22,o),
(631,-4,o),
(631,18,cs),
(631,28,o),
(627,36,o),
(622,43,cs),
(538,147,ls),
(527,161,o),
(527,175,o),
(538,189,cs),
(579,238,ls),
(585,245,o),
(588,254,o),
(588,264,cs),
(588,286,o),
(570,304,o),
(548,304,cs),
(536,304,o),
(525,298,o),
(517,290,c),
(491,259,ls),
(478,243,o),
(462,242,o),
(449,259,cs),
(346,386,ls),
(334,401,o),
(336,416,o),
(350,428,cs),
(484,545,ls),
(500,559,o),
(499,575,o),
(482,587,cs),
(282,724,ls),
(266,735,o),
(253,734,o),
(240,720,cs),
(115,590,ls),
(102,576,o),
(103,562,o),
(114,548,cs),
(199,442,ls),
(211,427,o),
(210,412,o),
(196,400,cs),
(20,247,ls),
(6,235,o),
(5,220,o),
(17,205,cs),
(260,-95,ls)
);
},
{
closed = 1;
nodes = (
(127,195,ls),
(115,210,o),
(116,224,o),
(130,237,cs),
(244,337,ls),
(259,350,o),
(274,348,o),
(286,333,cs),
(401,191,ls),
(412,177,o),
(412,163,o),
(401,149,cs),
(302,31,ls),
(289,15,o),
(273,14,o),
(260,31,cs)
);
},
{
closed = 1;
nodes = (
(286,478,o),
(271,479,o),
(259,495,cs),
(220,544,ls),
(209,558,o),
(208,572,o),
(221,586,cs),
(250,616,ls),
(263,630,o),
(276,631,o),
(292,620,cs),
(352,579,ls),
(369,567,o),
(370,551,o),
(354,537,cs),
(301,491,ls)
);
}
);
width = 700;
}
);
unicode = 38;
},
{
glyphname = bar;
lastChange = "2023-12-29 15:14:39 +0000";
layers = (
{
layerId = m002;
shapes = (
{
closed = 1;
nodes = (
(390,-84,o),
(427,-56,o),
(427,-16,cs),
(427,718,ls),
(427,758,o),
(390,786,o),
(350,786,cs),
(310,786,o),
(273,758,o),
(273,718,cs),
(273,-16,ls),
(273,-56,o),
(310,-84,o),
(350,-84,cs)
);
}
);
width = 700;
},
{
layerId = m003;
shapes = (
{
closed = 1;
nodes = (
(373,-113,o),
(392,-94,o),
(392,-71,cs),
(392,773,ls),
(392,796,o),
(373,815,o),
(350,815,cs),
(327,815,o),
(308,796,o),
(308,773,cs),
(308,-71,ls),
(308,-94,o),
(327,-113,o),
(350,-113,cs)
);
}
);
width = 700;
}
);
unicode = 124;
},
{
glyphname = dollar;
lastChange = "2023-12-29 15:13:27 +0000";
layers = (
{
layerId = m002;
shapes = (
{
pos = (0,7);
ref = S;
scale = (1,0.8757);
},
{
closed = 1;
nodes = (
(404,833,ls),
(404,855,o),
(386,873,o),
(364,873,cs),
(342,873,o),
(324,855,o),
(324,833,cs),
(323,662,ls),
(323,640,o),
(321,702,o),
(343,702,cs),
(365,702,o),
(403,640,o),
(403,662,cs)
);
},
{
closed = 1;
nodes = (
(434,13,ls),
(435,35,o),
(416,53,o),
(394,53,cs),
(372,53,o),
(355,35,o),
(354,13,cs),
(343,-158,ls),
(342,-180,o),
(361,-198,o),
(383,-198,cs),
(405,-198,o),
(422,-180,o),
(423,-158,cs)
);
}
);
width = 700;
},
{
layerId = m003;
shapes = (
{
pos = (0,7);
ref = S;
scale = (1,0.8757);
},
{
closed = 1;
nodes = (
(404,833,ls),
(404,855,o),
(386,873,o),
(364,873,cs),
(342,873,o),
(324,855,o),
(324,833,cs),
(323,662,ls),
(323,640,o),
(321,702,o),
(343,702,cs),
(365,702,o),
(403,640,o),
(403,662,cs)
);
},
{
closed = 1;
nodes = (
(434,13,ls),
(435,35,o),
(416,53,o),
(394,53,cs),
(372,53,o),
(355,35,o),
(354,13,cs),
(343,-158,ls),
(342,-180,o),
(361,-198,o),
(383,-198,cs),
(405,-198,o),
(422,-180,o),
(423,-158,cs)
);
}
);
width = 700;
}
);
unicode = 36;
},
{
glyphname = sterling;
lastChange = "2023-12-29 15:14:39 +0000";
layers = (
{
layerId = m002;
shapes = (
{
closed = 1;
nodes = (
(274,161,ls),
(278,161,o),
(281,131,o),
(287,136,cs),
(325,166,ls),
(353,190,o),
(358,213,o),
(340,244,cs),
(213,467,ls),
(211,471,o),
(213,470,o),
(211,469,c),
(341,629,ls),
(343,631,o),
(317,630,o),
(319,628,cs),
(430,523,l),
(445,511,o),
(465,503,o),
(484,503,cs),
(523,503,o),
(558,531,o),
(558,570,cs),
(558,591,o),
(549,606,o),
(537,616,cs),
(370,774,l),
(345,801,o),
(293,799,o),
(272,771,cs),
(66,516,ls),
(45,491,o),
(44,472,o),
(59,443,cs),
(181,231,ls),
(184,226,o),
(185,232,o),
(186,233,cs),
(45,117,l),
(2,78,o),
(26,33,o),
(84,31,cs),
(516,21,ls),
(557,19,o),
(594,49,o),
(594,88,cs),
(594,126,o),
(560,153,o),
(522,155,cs)
);
},
{
pos = (-130,-10);
ref = hyphen;
}
);
width = 700;
},
{
layerId = m003;
shapes = (
{
closed = 1;
nodes = (
(268,87,ls),
(241,88,o),
(234,107,o),
(255,124,cs),
(298,159,ls),
(312,171,o),
(314,185,o),
(305,201,cs),
(158,459,ls),
(150,474,o),
(150,487,o),
(161,501,cs),
(310,685,ls),
(322,700,o),
(339,701,o),
(353,688,cs),
(483,565,ls),
(490,559,o),
(499,554,o),
(510,554,cs),
(532,554,o),
(550,572,o),
(550,594,cs),
(550,606,o),
(545,616,o),
(537,623,cs),
(345,805,ls),
(331,819,o),
(314,818,o),
(302,803,cs),
(65,509,ls),
(54,495,o),
(54,482,o),
(62,467,cs),
(203,220,ls),
(212,204,o),
(210,190,o),
(196,178,cs),
(38,48,ls),
(17,30,o),
(24,12,o),
(51,11,cs),
(550,0,ls),
(572,-1,o),
(591,18,o),
(591,40,cs),
(591,62,o),
(574,79,o),
(552,80,cs)
);
},
{
pos = (-130,-10);
ref = hyphen;
}
);
width = 700;
}
);
unicode = 163;
},
{
glyphname = yen;
lastChange = "2023-12-29 15:14:39 +0000";
layers = (
{
layerId = m002;
shapes = (
{
pos = (50,30);
ref = hyphen;
},
{
pos = (50,-130);
ref = hyphen;
},
{
closed = 1;
nodes = (
(381,526,l),
(380,526,o),
(387,527,o),
(409,528,c),
(244,725,l),
(228,741,o),
(205,750,o),
(185,750,cs),
(146,750,o),
(111,722,o),
(111,683,cs),
(111,667,o),
(116,656,o),
(124,644,c),
(325,406,l),
(325,405,o),
(325,403,o),
(325,397,cs),
(317,80,ls),
(315,41,o),
(352,11,o),
(392,11,cs),
(430,11,o),
(464,37,o),
(466,76,cs),
(475,398,ls),
(475,405,o),
(476,409,o),
(478,412,cs),
(641,653,ls),
(647,661,o),
(652,672,o),
(652,688,cs),
(652,727,o),
(617,755,o),
(578,755,cs),
(551,755,o),
(524,741,o),
(514,722,c)
);
}
);
width = 700;
},
{
layerId = m003;
shapes = (
{
pos = (50,30);
ref = hyphen;
},
{
pos = (50,-130);
ref = hyphen;
},
{
closed = 1;
nodes = (
(420,528,ls),
(408,510,o),
(392,510,o),
(378,526,cs),
(187,754,l),
(179,762,o),
(168,768,o),
(156,768,cs),
(134,768,o),
(116,750,o),
(116,728,cs),
(116,718,o),
(120,709,o),
(125,702,cs),
(350,436,ls),
(360,425,o),
(363,415,o),
(363,399,cs),
(353,33,ls),
(352,11,o),
(371,-8,o),
(393,-8,cs),
(415,-8,o),
(432,9,o),
(433,31,cs),
(443,400,ls),
(443,414,o),
(447,425,o),
(455,437,cs),
(640,712,ls),
(644,718,o),
(647,726,o),
(647,734,cs),
(647,756,o),
(629,774,o),
(607,774,cs),
(593,774,o),
(581,767,o),
(574,756,cs)
);
}
);
width = 700;
}
);
unicode = 165;
},
{
glyphname = equal;
lastChange = "2023-12-29 15:14:39 +0000";
layers = (
{
layerId = m002;
shapes = (
{
closed = 1;
nodes = (
(167,542,ls),
(127,542,o),
(90,513,o),
(90,473,cs),
(90,433,o),
(127,405,o),
(167,405,cs),
(534,405,ls),
(574,405,o),
(611,433,o),
(611,473,cs),
(611,513,o),
(574,542,o),
(534,542,cs)
);
},
{
closed = 1;
nodes = (
(167,281,ls),
(127,281,o),
(90,253,o),
(90,213,cs),
(90,173,o),
(127,144,o),
(167,144,cs),
(534,144,ls),
(574,144,o),
(611,173,o),
(611,213,cs),
(611,253,o),
(574,281,o),
(534,281,cs)
);
}
);
width = 700;
},
{
layerId = m003;
shapes = (
{
closed = 1;
nodes = (
(139,535,ls),
(116,535,o),
(97,516,o),
(97,493,cs),
(97,470,o),
(116,451,o),
(139,451,cs),
(562,451,ls),
(585,451,o),
(604,470,o),
(604,493,cs),
(604,516,o),
(585,535,o),
(562,535,cs)
);
},
{
closed = 1;
nodes = (
(139,235,ls),
(116,235,o),
(97,216,o),
(97,193,cs),
(97,170,o),
(116,151,o),
(139,151,cs),
(562,151,ls),
(585,151,o),
(604,170,o),
(604,193,cs),
(604,216,o),
(585,235,o),
(562,235,cs)
);
}
);
width = 700;
}
);
unicode = 61;
},
{
glyphname = greater;
lastChange = "2024-01-03 15:44:39 +0000";
layers = (
{
layerId = m002;
shapes = (
{
closed = 1;
nodes = (
(141,27,o),
(152,29,o),
(164,32,c),
(514,201,ls),
(560,223,o),
(565,260,o),
(524,291,c),
(172,516,ls),
(159,524,o),
(143,528,o),
(131,528,cs),
(95,528,o),
(61,502,o),
(61,466,cs),
(61,442,o),
(74,425,o),
(91,415,cs),
(351,247,l),
(351,245,o),
(351,263,o),
(353,265,c),
(105,145,ls),
(81,134,o),
(64,115,o),
(64,89,cs),
(64,52,o),
(98,27,o),
(135,27,cs)
);
}
);
width = 600;
},
{
layerId = m003;
shapes = (
{
closed = 1;
nodes = (
(115,16,o),
(123,17,o),
(128,20,cs),
(530,214,ls),
(558,227,o),
(560,255,o),
(533,272,cs),
(129,531,ls),
(122,536,o),
(114,539,o),
(105,539,cs),
(80,539,o),
(60,519,o),
(60,494,cs),
(60,479,o),
(68,464,o),
(81,457,c),
(379,264,ls),
(392,255,o),
(392,247,o),
(378,240,cs),
(90,101,ls),
(74,93,o),
(64,78,o),
(64,61,cs),
(64,35,o),
(85,16,o),
(109,16,cs)
);
}
);
width = 600;
}
);
unicode = 62;
},
{
glyphname = less;
lastChange = "2024-01-03 15:44:43 +0000";
layers = (
{
layerId = m002;
shapes = (
{
closed = 1;
nodes = (
(259,265,l),
(261,263,o),
(261,245,o),
(261,247,c),
(521,415,ls),
(538,425,o),
(551,442,o),
(551,466,cs),
(551,502,o),
(517,528,o),
(481,528,cs),
(469,528,o),
(453,524,o),
(440,516,cs),
(88,291,l),
(47,260,o),
(52,223,o),
(98,201,cs),
(448,32,l),
(460,29,o),
(471,27,o),
(477,27,cs),
(514,27,o),
(548,52,o),
(548,89,cs),
(548,115,o),
(531,134,o),
(507,145,cs)
);
}
);
width = 600;
},
{
layerId = m003;
shapes = (
{
closed = 1;
nodes = (
(234,240,ls),
(220,247,o),
(220,255,o),
(233,264,cs),
(531,457,l),
(544,464,o),
(552,479,o),
(552,494,cs),
(552,519,o),
(532,539,o),
(507,539,cs),
(498,539,o),
(490,536,o),
(483,531,cs),
(79,272,ls),
(52,255,o),
(54,227,o),
(82,214,cs),
(484,20,ls),
(489,17,o),
(497,16,o),
(503,16,cs),
(527,16,o),
(548,35,o),
(548,61,cs),
(548,78,o),
(538,93,o),
(522,101,cs)
);
}
);
width = 600;
}
);
unicode = 60;
},
{
glyphname = acutecomb;
lastChange = "2024-01-03 15:41:35 +0000";
layers = (
{
anchors = (
{
name = _top;
pos = (303,813);
},
{
name = top;
pos = (303,1029);
}
);
layerId = m002;
shapes = (
{
closed = 1;
nodes = (
(219,909,ls),
(189,892,o),
(173,872,o),
(173,846,cs),
(173,798,o),
(239,763,o),
(297,794,cs),
(475,889,l),
(496,903,o),
(510,922,o),
(510,947,cs),
(510,987,o),
(473,1015,o),
(433,1015,cs),
(419,1015,o),
(400,1011,o),
(393,1005,c)
);
}
);
width = 700;
},
{
anchors = (
{
name = _top;
pos = (297,800);
},
{
name = top;
pos = (297,1049);
}
);
layerId = m003;
shapes = (
{
closed = 1;
nodes = (
(238,901,ls),
(220,891,o),
(213,879,o),
(213,866,cs),
(213,846,o),
(239,821,o),
(278,842,cs),
(452,935,ls),
(463,942,o),
(470,954,o),
(470,967,cs),
(470,987,o),
(453,1003,o),
(433,1003,cs),
(426,1003,o),
(419,1001,o),
(416,999,cs)
);
}
);
width = 700;
}
);
unicode = 769;
},
{
glyphname = circumflexcomb;
lastChange = "2023-12-29 15:14:39 +0000";
layers = (
{
anchors = (
{
name = _top;
pos = (323,746);
},
{
name = top;
pos = (323,1000);
}
);
layerId = m002;
shapes = (
{
closed = 1;
nodes = (
(478,739,o),
(510,764,o),
(510,797,cs),
(510,818,o),
(499,833,o),
(487,840,c),
(352,955,ls),
(332,973,o),
(294,972,o),
(274,954,cs),
(145,849,ls),
(130,836,o),
(120,822,o),
(120,804,cs),
(120,769,o),
(152,745,o),
(186,745,cs),
(201,745,o),
(218,751,o),
(228,759,cs),
(328,840,l),
(330,839,o),
(301,839,o),
(300,840,cs),
(400,753,l),
(415,744,o),
(430,739,o),
(444,739,cs)
);
}
);
width = 700;
},
{
anchors = (
{
name = _top;
pos = (324,730);
},
{
name = top;
pos = (324,1022);
}
);
layerId = m003;
shapes = (
{
closed = 1;
nodes = (
(480,759,o),
(493,773,o),
(493,789,cs),
(493,798,o),
(489,807,o),
(482,812,cs),
(328,943,ls),
(319,951,o),
(309,951,o),
(300,943,cs),
(148,819,ls),
(141,814,o),
(137,805,o),
(137,796,cs),
(137,779,o),
(150,766,o),
(167,766,cs),
(174,766,o),
(180,769,o),
(186,773,cs),
(300,865,ls),
(309,873,o),
(319,873,o),
(328,865,cs),
(444,766,ls),
(449,762,o),
(456,759,o),
(463,759,cs)
);
}
);
width = 700;
}
);
unicode = 770;
},
{
glyphname = ringcomb;
lastChange = "2023-12-29 15:14:39 +0000";
layers = (
{
anchors = (
{
name = _top;
pos = (321,818);
},
{
name = top;
pos = (321,1030);
}
);
layerId = m002;
shapes = (
{
closed = 1;
nodes = (
(324,841,ls),
(376,841,o),
(419,884,o),
(419,936,cs),
(419,987,o),
(376,1030,o),
(324,1030,cs),
(318,1030,ls),
(266,1030,o),
(223,987,o),
(223,936,cs),
(223,884,o),
(266,841,o),
(318,841,cs)
);
},
{
closed = 1;
nodes = (
(294,889,o),
(272,911,o),
(272,936,cs),
(272,961,o),
(294,982,o),
(319,982,cs),
(322,982,ls),
(348,982,o),
(369,961,o),
(369,936,cs),
(369,911,o),
(348,889,o),
(322,889,cs),
(319,889,ls)
);
}
);
width = 700;
},
{
anchors = (
{
name = _top;
pos = (321,800);
},
{
name = top;
pos = (321,1044);
}
);
layerId = m003;
shapes = (
{
closed = 1;
nodes = (
(324,827,ls),
(384,827,o),
(434,876,o),
(434,936,cs),
(434,995,o),
(384,1044,o),
(324,1044,cs),
(318,1044,ls),
(258,1044,o),
(208,995,o),
(208,936,cs),
(208,876,o),
(258,827,o),
(318,827,cs)
);
},
{
closed = 1;
nodes = (
(290,882,o),
(265,907,o),
(265,936,cs),
(265,965,o),
(290,989,o),
(319,989,cs),
(322,989,ls),
(352,989,o),
(376,965,o),
(376,936,cs),
(376,907,o),
(352,882,o),
(322,882,cs),
(319,882,ls)
);
}
);
width = 700;
}
);
unicode = 778;
},
{
glyphname = tildecomb.case;
lastChange = "2023-12-29 15:14:39 +0000";
layers = (
{
anchors = (
{
name = _top;
pos = (342,814);
},
{
name = top;
pos = (342,959);
}
);
background = {
shapes = (
{
closed = 1;
nodes = (
(425,914,ls),
(413,899,o),
(396,898,o),
(382,911,cs),
(312,978,ls),
(291,999,o),
(258,998,o),
(231,974,cs),
(147,898,ls),
(140,891,o),
(136,881,o),
(136,870,cs),
(136,847,o),
(155,828,o),
(178,828,cs),
(190,828,o),
(203,834,o),
(210,843,cs),
(255,894,ls),
(268,908,o),
(282,910,o),
(297,896,cs),
(370,829,ls),
(394,805,o),
(432,808,o),
(452,836,c),
(531,930,ls),
(537,937,o),
(540,948,o),
(540,957,cs),
(540,980,o),
(529,988,o),
(506,988,cs),
(493,988,o),
(481,983,o),
(474,974,cs)
);
}
);
};
layerId = m002;
shapes = (
{
closed = 1;
nodes = (
(198,804,o),
(220,811,o),
(229,822,c),
(299,879,l),
(299,881,o),
(272,881,o),
(269,880,c),
(341,819,ls),
(373,792,o),
(428,794,o),
(456,824,cs),
(550,919,l),
(558,931,o),
(563,941,o),
(563,955,cs),
(563,990,o),
(531,1013,o),
(497,1013,cs),
(481,1013,o),
(462,1006,o),
(447,994,c),
(379,923,l),
(379,923,o),
(411,926,o),
(412,922,c),
(342,981,ls),
(312,1006,o),
(261,1006,o),
(231,982,cs),
(141,908,ls),
(127,895,o),
(117,881,o),
(117,863,cs),
(117,828,o),
(149,804,o),
(183,804,cs)
);
}
);
width = 700;
},
{
anchors = (
{
name = _top;
pos = (342,800);
},
{
name = top;
pos = (342,967);
}
);
background = {
shapes = (
{
closed = 1;
nodes = (
(425,914,ls),
(413,899,o),
(396,898,o),
(382,911,cs),
(312,978,ls),
(291,999,o),
(258,998,o),
(231,974,cs),
(147,898,ls),
(140,891,o),
(136,881,o),
(136,870,cs),
(136,847,o),
(155,828,o),
(178,828,cs),
(190,828,o),
(203,834,o),
(210,843,cs),
(255,894,ls),
(268,908,o),
(282,910,o),
(297,896,cs),
(370,829,ls),
(394,805,o),
(432,808,o),
(452,836,c),
(531,930,ls),
(537,937,o),
(540,948,o),
(540,957,cs),
(540,980,o),
(529,988,o),
(506,988,cs),
(493,988,o),
(481,983,o),
(474,974,cs)
);
}
);
};
layerId = m003;
shapes = (
{
closed = 1;
nodes = (
(167,826,o),
(174,829,o),
(179,833,cs),
(263,902,ls),
(272,910,o),
(282,910,o),
(291,902,cs),
(371,834,ls),
(393,815,o),
(420,816,o),
(440,837,cs),
(542,941,ls),
(547,947,o),
(550,954,o),
(550,962,cs),
(550,979,o),
(537,992,o),
(520,992,cs),
(512,992,o),
(504,989,o),
(498,983,cs),
(418,900,ls),
(409,891,o),
(399,890,o),
(389,899,cs),
(312,965,ls),
(292,982,o),
(265,982,o),
(245,965,cs),
(141,879,ls),
(134,874,o),
(130,865,o),
(130,856,cs),
(130,839,o),
(143,826,o),
(160,826,cs)
);
},
{
closed = 1;
nodes = (
);
}
);
width = 700;
}
);
},
{
glyphname = cedillacomb.case;
lastChange = "2023-12-29 15:14:39 +0000";
layers = (
{
anchors = (
{
name = _bottom;
pos = (329,-15);
},
{
name = bottom;
pos = (329,-231);
}
);
layerId = m002;
shapes = (
{
closed = 1;
nodes = (
(393,-251,ls),
(399,-250,o),
(413,-248,o),
(422,-245,cs),
(473,-225,o),
(493,-178,o),
(446,-128,c),
(417,-101,ls),
(418,-102,o),
(418,-103,o),
(418,-104,c),
(442,-50,ls),
(444,-44,o),
(446,-38,o),
(446,-31,cs),
(446,4,o),
(414,27,o),
(379,27,cs),
(350,27,o),
(325,10,o),
(318,-9,cs),
(287,-85,l),
(270,-119,o),
(281,-152,o),
(313,-174,cs),
(317,-177,l),
(312,-174,o),
(320,-144,o),
(335,-143,cs),
(251,-147,ls),
(217,-148,o),
(186,-172,o),
(186,-205,cs),
(186,-242,o),
(223,-268,o),
(259,-263,cs)
);
}
);
width = 700;
},
{
anchors = (
{
name = _bottom;
pos = (329,0);
},
{
name = bottom;
pos = (329,-248);
}
);
layerId = m003;
shapes = (
{
closed = 1;
nodes = (
(396,-234,ls),
(404,-233,o),
(411,-233,o),
(420,-230,cs),
(454,-216,o),
(457,-182,o),
(428,-153,cs),
(395,-121,ls),
(386,-112,o),
(382,-106,o),
(387,-94,cs),
(415,-29,ls),
(416,-26,o),
(417,-22,o),
(417,-18,cs),
(417,-1,o),
(404,12,o),
(387,12,cs),
(375,12,o),
(364,5,o),
(359,-6,cs),
(324,-91,ls),
(313,-115,o),
(319,-140,o),
(341,-155,cs),
(345,-158,ls),
(360,-169,o),
(356,-182,o),
(338,-183,cs),
(240,-188,ls),
(224,-188,o),
(211,-202,o),
(211,-218,cs),
(211,-235,o),
(225,-250,o),
(242,-248,cs)
);
}
);
width = 700;
}
);
},
